<svg width="100" height="51" viewBox="0 0 100 51" fill="none" xmlns="http://www.w3.org/2000/svg">
<g clip-path="url(#clip0_311_43)">
<path d="M63.5986 7.5562C68.3178 9.60216 72.5482 12.6277 76.0096 16.4322L89.7566 31.4082C92.8496 34.7782 104.751 43.6142 97.9146 44.5592C91.0786 45.5042 81.6486 46.9802 78.5556 43.6102L76.4986 41.3742L64.8086 28.6342L50.0986 12.6092L50.1226 12.5832C51.7894 10.7109 53.8884 9.2742 56.2371 8.39808C58.5857 7.52196 61.1128 7.23295 63.5986 7.5562Z" fill="#F77F00"/>
<path d="M36.0586 7.6075C40.3509 5.51429 45.0634 4.42556 49.8389 4.42383C54.6145 4.4221 59.3277 5.5074 63.6216 7.5975C58.7356 6.8505 53.6276 8.7495 49.8756 13.2975C46.1056 8.7235 40.9666 6.8315 36.0586 7.6075Z" fill="#003049"/>
<path d="M36.3176 41.9553C31.4465 39.8497 27.0779 36.734 23.5006 32.8143L3.11457 11.7143C-0.972432 5.72932 -2.97443 6.41432 9.70157 4.81432C22.3776 3.21432 18.6906 2.29532 21.8856 5.76632L23.8676 8.06632L35.0676 20.2363L50.2646 36.7513L50.2406 36.7773C48.5159 38.7077 46.3465 40.1882 43.9203 41.0905C41.4941 41.9928 38.8844 42.2897 36.3176 41.9553Z" fill="#003049"/>
<path d="M63.5366 41.9868C68.2554 39.9407 72.4855 36.9152 75.9466 33.1108L89.6946 18.1348C92.7866 14.7648 105.367 4.4278 93.2726 4.0898C81.1786 3.7518 81.5866 2.5628 78.4926 5.9318L76.4366 8.1688L64.7456 20.9088L50.0366 36.9328L50.0606 36.9588C51.7274 38.8312 53.8263 40.268 56.175 41.1443C58.5236 42.0206 61.0507 42.3098 63.5366 41.9868Z" fill="#FDBF49"/>
<path d="M36.5686 41.8367C40.8485 43.646 45.4476 44.579 50.0942 44.5806C54.7408 44.5821 59.3405 43.6522 63.6216 41.8457C61.1434 42.1685 58.624 41.8904 56.2759 41.0347C53.9279 40.1791 51.8201 38.7712 50.1306 36.9297C48.433 38.7802 46.3131 40.1929 43.9517 41.0473C41.5903 41.9017 39.0573 42.1725 36.5686 41.8367Z" fill="#F77F00"/>
<path d="M36.3176 7.54724C31.4462 9.65246 27.0772 12.7678 23.4995 16.6872L10.1755 31.1612C6.98055 34.6312 -2.88645 45.9252 6.10055 46.1912C15.0875 46.4572 18.5515 47.2052 21.7465 43.7302L23.8675 41.4302L35.0676 29.2602L50.2645 12.7512L50.2395 12.7242C48.5148 10.7944 46.3455 9.31421 43.9195 8.41209C41.4935 7.50998 38.8842 7.21312 36.3176 7.54724Z" fill="#D72827"/>
</g>
<defs>
<clipPath id="clip0_311_43">
<rect width="100" height="50" fill="white" transform="translate(0 0.21875)"/>
</clipPath>
</defs>
</svg>
