<svg xmlns="http://www.w3.org/2000/svg"
 width="219px" height="185px" viewBox="0 219 185"
 preserveAspectRatio="xMidYMid meet">

<g transform="translate(0.000000,185.000000) scale(0.100000,-0.100000)" stroke="none">
<path d="M1600 1820 c-31 -21 -56 -30 -80 -29 -19 1 -58 1 -85 0 l-51 -1 -88
-105 -88 -105 -47 34 c-25 18 -88 63 -140 99 l-93 66 -52 -26 c-70 -36 -159
-96 -456 -311 -271 -197 -350 -258 -350 -273 0 -29 179 22 549 157 96 35 179
64 183 64 5 0 18 -21 29 -47 11 -25 46 -75 79 -110 33 -35 60 -68 60 -74 0 -5
-32 -41 -70 -79 -66 -63 -72 -74 -91 -142 -42 -159 -45 -162 -214 -254 -137
-75 -579 -383 -590 -412 -3 -8 -3 -17 0 -20 14 -14 129 24 367 122 141 58 265
106 275 108 16 3 19 -9 25 -122 8 -147 25 -311 34 -334 10 -26 42 -19 59 13
27 53 64 199 109 429 50 257 53 266 92 308 62 65 276 236 307 245 17 5 64 9
103 9 l71 0 91 65 c50 36 95 65 101 65 6 0 11 -10 11 -23 0 -13 14 -36 33 -54
63 -60 395 -252 460 -267 37 -9 45 15 23 62 -48 100 -294 483 -373 580 -43 52
-72 54 -161 12 -35 -17 -66 -30 -68 -30 -2 0 -4 23 -4 51 0 36 10 73 34 129
54 122 81 230 59 230 -5 0 -28 -14 -53 -30z m-147 -57 c13 -12 -15 -33 -44
-33 -37 0 -37 15 -1 28 34 13 37 13 45 5z m137 3 c0 -2 -7 -9 -15 -16 -13 -11
-14 -10 -9 4 5 14 24 23 24 12z m-99 -59 c-22 -22 -31 -27 -31 -16 0 23 52 77
58 60 2 -7 -10 -27 -27 -44z m122 33 c-6 -24 -23 -37 -23 -18 0 12 18 38 26
38 1 0 0 -9 -3 -20z m-670 -87 c21 -36 53 -101 72 -143 l35 -77 -42 -102 -42
-101 -34 32 c-42 41 -62 79 -98 191 -18 55 -33 87 -42 87 -8 0 -124 -57 -258
-126 -134 -69 -244 -123 -244 -120 0 6 403 298 510 369 47 32 90 57 96 57 5 0
27 -30 47 -67z m635 39 c4 -24 -41 -132 -55 -132 -12 0 -73 39 -73 46 0 4 19
31 43 60 45 58 79 68 85 26z m-445 -103 l49 -34 -44 -37 c-23 -21 -48 -38 -55
-38 -10 0 -123 207 -123 225 0 4 28 -13 63 -38 34 -24 84 -59 110 -78z m302
89 c-14 -63 -20 -68 -85 -68 -33 0 -60 3 -60 6 0 3 14 23 30 44 29 37 47 46
98 49 21 1 23 -2 17 -31z m-79 -116 c19 -6 13 -18 -75 -144 -52 -76 -97 -136
-99 -134 -2 2 13 67 34 145 l37 141 41 -1 c23 -1 50 -4 62 -7z m138 -22 c19
-7 26 -19 31 -53 8 -51 4 -79 -10 -84 -11 -3 -67 82 -85 131 -10 27 -9 28 14
22 14 -3 36 -10 50 -16z m-290 -37 c-27 -123 -69 -265 -89 -298 -21 -37 -65
-86 -65 -72 0 3 23 66 50 141 28 75 50 144 50 153 1 27 37 103 50 103 6 0 8
-11 4 -27z m224 -41 c12 -31 24 -61 25 -67 2 -10 -331 -264 -346 -265 -5 0 12
23 37 51 25 27 82 103 127 167 90 129 121 171 129 171 3 0 15 -25 28 -57z
m-636 3 c6 -14 9 -27 7 -29 -9 -9 -462 -177 -466 -173 -6 7 410 226 430 227 9
0 23 -11 29 -25z m279 -181 c-51 -140 -71 -178 -71 -135 0 58 56 218 98 281
34 52 23 -8 -27 -146z m587 53 l-23 -97 -52 52 c-29 29 -53 58 -53 65 0 16
132 95 143 84 4 -4 -2 -52 -15 -104z m230 -253 c-2 -2 -52 25 -111 59 -88 51
-106 66 -103 82 2 11 14 59 27 108 l24 87 83 -166 c46 -91 82 -168 80 -170z
m22 140 c58 -88 130 -207 159 -264 l53 -103 -73 40 c-41 22 -96 54 -124 71
l-50 32 43 0 c34 0 42 3 42 19 0 10 -42 102 -94 205 -51 103 -87 181 -78 174
8 -7 63 -85 122 -174z m-410 115 c6 -11 35 -46 63 -77 44 -49 48 -57 32 -60
-26 -4 -404 -91 -430 -98 l-20 -6 20 20 c26 27 308 242 317 242 4 0 12 -9 18
-21z m342 -297 c-27 -4 -79 22 -119 61 -61 58 -34 58 54 0 66 -44 81 -59 65
-61z m-302 104 c0 -2 -25 -22 -55 -45 l-54 -41 -138 1 c-159 1 -156 3 62 53
144 33 185 40 185 32z m-574 -112 c-5 -14 -66 -20 -66 -7 0 4 15 22 33 41 l32
33 3 -26 c2 -15 1 -33 -2 -41z m234 -13 c0 -11 -186 -151 -200 -151 -7 0 -10
26 -8 73 l3 72 70 6 c117 9 135 9 135 0z m-260 -36 c0 -16 -147 -282 -160
-290 -5 -3 7 46 26 107 19 62 37 125 40 141 5 19 15 30 38 36 37 11 56 13 56
6z m10 -114 c0 -32 -9 -50 -46 -95 -25 -31 -49 -56 -55 -56 -5 0 3 24 17 53
34 67 75 137 80 137 2 0 4 -18 4 -39z m-236 -243 l-27 -95 -261 -104 c-144
-56 -277 -109 -296 -116 l-35 -13 35 30 c72 63 598 406 608 396 1 -2 -10 -46
-24 -98z m126 -135 c-33 -164 -87 -393 -95 -402 -3 -2 -5 2 -5 10 0 8 -7 86
-15 174 -24 265 -28 244 63 332 54 54 78 71 80 60 2 -9 -11 -87 -28 -174z"/>
</g>
</svg>