<?xml version="1.0" encoding="UTF-8"?>
<svg version="1.1" xmlns="http://www.w3.org/2000/svg" width="800" height="878">
<path d="M0 0 C2.18981727 0.00543655 4.37962375 0.00780624 6.56944656 0.00987244 C27.4084578 0.04052179 47.97594288 0.49101432 68.65730667 3.31785583 C71.10651159 3.62265452 73.55573053 3.92734052 76.00496292 4.23191833 C108.64755143 8.49146387 139.83066431 19.4750086 160.97371292 46.25144958 C172.44638522 62.11130283 178.76561763 79.28662429 178.79101944 99.0191803 C178.79441777 100.11717565 178.79441777 100.11717565 178.79788476 101.23735273 C178.80416761 103.66736112 178.8033991 106.09731292 178.80257034 108.52732849 C178.80556548 110.27917044 178.80896882 112.03101174 178.81274796 113.78285217 C178.82155783 118.52697235 178.82392485 123.27107448 178.82456374 128.01520205 C178.82527615 130.98496849 178.82741413 133.95473039 178.83006096 136.9244957 C178.83930564 147.3018752 178.8433971 157.67924188 178.84260941 168.05662537 C178.84200941 177.70180934 178.85254814 187.34693724 178.86835307 196.99210703 C178.88146909 205.29475656 178.88679158 213.59738786 178.886154 221.90004766 C178.88590013 226.84901552 178.8886894 231.79793356 178.89933205 236.74689102 C178.90908118 241.4074369 178.90904595 246.06788603 178.90181541 250.72843552 C178.90077787 252.42864881 178.90308246 254.12886835 178.90917587 255.82907104 C179.00574596 284.66714093 171.7211684 308.62230036 151.46980667 330.00535583 C130.41304171 350.3582735 104.37903475 354.47887236 76.23030472 354.4438324 C74.37130058 354.4452293 72.51229677 354.44713 70.65329361 354.44949341 C66.66361295 354.45397245 62.67394252 354.4558461 58.68425941 354.45595551 C52.35573511 354.45710271 46.02726825 354.46999264 39.6987648 354.48551941 C38.091213 354.48937869 38.091213 354.48937869 36.45118541 354.49331594 C34.26023924 354.49858217 32.06929312 354.50386765 29.87834704 354.50917196 C15.16004523 354.54415804 0.44181572 354.57084083 -14.27653122 354.56834412 C-24.224178 354.56674745 -34.1716273 354.58297822 -44.1192109 354.61905074 C-49.36970794 354.63737852 -54.61987582 354.64697008 -59.87039757 354.63457489 C-64.82091562 354.62300063 -69.77084772 354.63515775 -74.72128868 354.66420937 C-76.52014234 354.67076051 -78.31905123 354.66914048 -80.11788177 354.6579113 C-109.67694573 354.48896188 -137.21690934 364.52716001 -158.44425583 385.38426208 C-159.41262063 386.35992931 -160.3788869 387.3376854 -161.34269333 388.31785583 C-162.1754277 389.15187927 -163.00816208 389.98590271 -163.86613083 390.84519958 C-169.75778476 397.04852804 -174.15735588 403.87824118 -178.34269333 411.31785583 C-178.88925583 412.28594177 -179.43581833 413.25402771 -179.99894333 414.25144958 C-184.23629389 422.21810103 -187.14973044 430.57449249 -189.34269333 439.31785583 C-189.51700882 439.99979004 -189.69132431 440.68172424 -189.87092209 441.38432312 C-192.02207099 451.30910177 -191.69810253 461.41438143 -191.75675583 471.51707458 C-191.77549256 473.56402342 -191.79506779 475.61096474 -191.81544113 477.65789795 C-191.86650381 483.01217694 -191.90626709 488.3664809 -191.94358444 493.72087097 C-191.98378728 499.19792222 -192.03480491 504.67487191 -192.08488083 510.15184021 C-192.18133341 520.87377381 -192.26583521 531.59576511 -192.34269333 542.31785583 C-201.32357262 542.38791635 -210.30435527 542.44094766 -219.28544998 542.47329235 C-223.45746257 542.48883009 -227.62928578 542.5098456 -231.80118942 542.54417419 C-235.84072304 542.57719879 -239.88007657 542.59479776 -243.91973495 542.60248756 C-245.44721937 542.60795495 -246.97469595 542.61862641 -248.5021019 542.63504601 C-274.19843624 542.89984404 -295.74254617 535.91943131 -314.74894333 518.00535583 C-341.52528102 490.26119871 -348.5653111 450.81570055 -354.98991013 414.31736755 C-355.3020263 412.54834923 -355.62160689 410.78065144 -355.9423027 409.01316833 C-361.10899242 379.47791527 -360.82821238 345.77281354 -355.34269333 316.31785583 C-355.13338181 315.12917908 -354.92407028 313.94050232 -354.70841599 312.71580505 C-346.6246714 266.99945475 -346.6246714 266.99945475 -336.34269333 246.31785583 C-335.87218552 245.3394574 -335.4016777 244.36105896 -334.91691208 243.35301208 C-321.91574882 217.8267845 -298.97891594 200.24116152 -272.21769333 191.06785583 C-254.84241648 186.26560526 -237.18683868 185.88867359 -219.284832 185.97727966 C-216.84826798 185.97812815 -214.4117032 185.97764648 -211.97513962 185.97595215 C-206.1044653 185.97518741 -200.23394095 185.98804417 -194.3633007 186.00726513 C-187.51914417 186.0289115 -180.67500739 186.03321788 -173.83082143 186.03662964 C-161.63007621 186.04316037 -149.4293919 186.06302866 -137.22867966 186.09153748 C-125.39209417 186.11916632 -113.55552535 186.14035641 -101.71891403 186.15306091 C-100.62050796 186.15424317 -100.62050796 186.15424317 -99.49991187 186.15544931 C-95.82552969 186.15936504 -92.1511474 186.16315601 -88.47676504 186.16688502 C-58.09869622 186.19787545 -27.72070662 186.25145608 2.65730667 186.31785583 C2.65730667 179.38785583 2.65730667 172.45785583 2.65730667 165.31785583 C-54.76269333 165.31785583 -112.18269333 165.31785583 -171.34269333 165.31785583 C-171.34269333 53.8228692 -171.34269333 53.8228692 -153.15519333 34.63035583 C-148.3360974 30.05302057 -143.11225391 26.58543187 -137.34269333 23.31785583 C-136.45195114 22.80480896 -135.56120895 22.29176208 -134.64347458 21.76316833 C-114.88439172 11.12578203 -91.4095352 7.36073774 -69.46769333 4.13035583 C-67.9132048 3.89808289 -67.9132048 3.89808289 -66.32731247 3.66111755 C-44.2921047 0.59682824 -22.2146955 -0.05736874 0 0 Z M-118.34269333 64.31785583 C-124.29863719 71.44418168 -128.01608975 79.60627501 -127.62394333 89.00144958 C-126.42708163 98.85893555 -122.28384297 107.49376329 -114.40519333 113.69285583 C-106.67020046 118.96140758 -98.878606 121.17472584 -89.54191208 119.95066833 C-80.6998703 117.92462765 -73.27684211 113.45056524 -67.90519333 106.06785583 C-62.84218174 97.58155801 -61.31188935 88.98168166 -63.34269333 79.31785583 C-65.6475492 70.92070524 -69.72837367 64.35655415 -77.06534958 59.52488708 C-91.30777083 51.45482067 -106.41526533 52.52752471 -118.34269333 64.31785583 Z " fill="#3C79AA" transform="translate(358.3426933288574,-0.3178558349609375)"/>
<path d="M0 0 C9.14582689 -0.0466381 18.29161193 -0.08202736 27.43753242 -0.10362434 C31.68577443 -0.11399735 35.9339342 -0.12803583 40.18212891 -0.15087891 C44.29296536 -0.1728414 48.40372345 -0.18461716 52.51461411 -0.18975449 C54.07164618 -0.19340874 55.62867467 -0.20054247 57.18567276 -0.21146011 C80.07093848 -0.36533678 100.40149038 3.49184305 118 19 C118.75152344 19.65613281 119.50304687 20.31226563 120.27734375 20.98828125 C157.81500256 56.01903139 165.25788434 125.93899139 167.15234375 173.85302734 C168.51212009 226.97269006 156.72134762 292.37610149 121.1875 333.9375 C107.53876224 348.14158546 89.87241206 355.59644819 70.29484749 356.26842308 C63.30609061 356.40715612 56.31803375 356.37161399 49.32836914 356.34057617 C46.64637854 356.33972879 43.96441254 356.34007556 41.28242493 356.34190369 C35.53515964 356.34346752 29.78799748 356.33415226 24.04075813 356.31719017 C15.73149997 356.29268281 7.42229106 356.28498298 -0.88699932 356.2812262 C-14.37220415 356.27467999 -27.85735418 356.25476886 -41.3425293 356.22631836 C-54.4326958 356.19873016 -67.52284735 356.17751996 -80.61303711 356.16479492 C-81.42155905 356.16400675 -82.230081 356.16321858 -83.06310361 356.16240653 C-87.11971138 356.15849107 -91.17631926 356.15470003 -95.2329272 356.15097082 C-128.82199286 356.119932 -162.41098582 356.06631379 -196 356 C-196 362.93 -196 369.86 -196 377 C-138.25 377 -80.5 377 -21 377 C-21 472.43809524 -21 472.43809524 -38 493 C-38.90685547 494.15048828 -38.90685547 494.15048828 -39.83203125 495.32421875 C-69.57258365 531.2007167 -128.15378978 541.90741553 -171.6875 546.25 C-210.8597162 549.6363083 -249.48497172 544.34600855 -287 533 C-287.83305664 532.75056641 -288.66611328 532.50113281 -289.52441406 532.24414062 C-308.39009636 526.47241399 -326.87609611 517.8126096 -342 505 C-342.69351563 504.46632813 -343.38703125 503.93265625 -344.1015625 503.3828125 C-358.40462877 491.92896262 -367.86528604 474.92495122 -371 457 C-371.54326477 450.77461989 -371.421399 444.50978849 -371.40405273 438.26660156 C-371.40976526 436.39918614 -371.41673291 434.5317742 -371.42485046 432.66436768 C-371.4427025 427.62279154 -371.44162816 422.58139023 -371.43590808 417.53979206 C-371.43280373 413.31562749 -371.4389227 409.09149589 -371.44494683 404.86733603 C-371.45896524 394.89232338 -371.45745401 384.91739642 -371.44604492 374.94238281 C-371.43457485 364.68814387 -371.44862691 354.43416683 -371.4754414 344.1799624 C-371.49767343 335.34385609 -371.50421868 326.50783154 -371.49836498 317.67169929 C-371.49501108 312.40857402 -371.49730509 307.14561642 -371.51461601 301.88251495 C-371.53020245 296.92797012 -371.52600125 291.97380976 -371.50731087 287.01927948 C-371.50365668 285.21347624 -371.50663942 283.40764376 -371.51719666 281.60186768 C-371.6612274 254.9022286 -362.69215614 232.47797653 -344.3125 212.9375 C-325.54729763 194.82944479 -302.31517578 188.35151086 -276.86010742 188.50170898 C-274.99696928 188.49787548 -273.13383411 188.49224771 -271.27070618 188.48498535 C-267.29086471 188.47312511 -263.31128752 188.47345371 -259.33144188 188.48357964 C-253.0197203 188.49928589 -246.70826412 188.48536157 -240.39656067 188.46754456 C-228.12999525 188.43685366 -215.86351292 188.43521766 -203.5969162 188.43719482 C-187.99500167 188.43859135 -172.39315151 188.42800196 -156.79128343 188.3886171 C-150.53601944 188.37381018 -144.28099571 188.37385814 -138.02572858 188.38609493 C-134.11226077 188.39085382 -130.19888221 188.38321286 -126.285429 188.37255096 C-124.49216898 188.37017425 -122.69889309 188.37277371 -120.90565109 188.38115883 C-105.69286917 188.44795174 -90.06259496 187.46252962 -75.625 182.25 C-74.52369751 181.86593994 -74.52369751 181.86593994 -73.40014648 181.47412109 C-45.89133441 171.52597521 -23.78374969 149.84639229 -11.25 123.6875 C-6.43609613 113.14328081 -3.11210294 102.21486996 -1.88916016 90.67431641 C-1.80600367 89.90220133 -1.72284718 89.13008625 -1.63717079 88.33457375 C-0.74601676 79.40672339 -0.64659658 70.48841859 -0.5859375 61.5234375 C-0.56716249 59.73311536 -0.54758476 57.94280147 -0.5272522 56.15249634 C-0.47659222 51.5068862 -0.43661908 46.86124756 -0.39910889 42.21551514 C-0.35864709 37.44829654 -0.30775045 32.68118958 -0.2578125 27.9140625 C-0.16183972 18.60945417 -0.07719138 9.30478181 0 0 Z M-124 435 C-129.51296842 443.88127371 -130.79104571 451.60499087 -130 462 C-127.89600225 470.81274488 -122.94902532 478.17428319 -115.5625 483.375 C-108.04309361 487.97158065 -100.69465456 488.89829977 -92 488 C-82.41724749 485.48180509 -75.46139458 480.73092059 -70.2890625 472.30859375 C-65.36248867 463.48554789 -64.27549955 454.13433078 -67.0625 444.25 C-70.47652859 435.59583451 -76.79961562 429.23200886 -85 425 C-99.41637375 419.26106052 -114.05647722 423.48747954 -124 435 Z " fill="#FFDE57" transform="translate(558,186)"/>
<path d="M0 0 C7.93245175 7.58756254 7.93245175 7.58756254 8.0546875 11.953125 C7.70016754 16.48481492 7.18619256 20.07694276 3.87109375 23.4765625 C-29.55496895 50.69193714 -82.77213109 52.27201508 -124 56 C-125.95945557 56.18006592 -125.95945557 56.18006592 -127.95849609 56.36376953 C-169.75101178 59.99390261 -213.22679438 59.76779864 -255 56 C-256.10459564 55.90171906 -256.10459564 55.90171906 -257.23150635 55.80145264 C-360.6900114 46.50857678 -360.6900114 46.50857678 -383.828125 21.48046875 C-386.4119366 18.21625343 -386.34056081 15.34436409 -386.26953125 11.30859375 C-385.66398927 6.12199504 -382.37218604 3.12194999 -378.5 0 C-313.74603694 -45.4103384 -193.67638552 -35.47630815 0 0 Z " fill="#898989" transform="translate(553,819)"/>
<path d="M0 0 C1.91208252 -0.00472824 1.91208252 -0.00472824 3.86279297 -0.009552 C5.2600915 -0.00776217 6.65738971 -0.0057112 8.0546875 -0.00341797 C9.48193376 -0.00409132 10.90917991 -0.00506161 12.33642578 -0.00631714 C15.32911266 -0.00779262 18.32176971 -0.00564434 21.31445312 -0.00097656 C25.15477879 0.00472065 28.99503457 0.00144084 32.83535767 -0.00454903 C35.78296436 -0.00815866 38.73055443 -0.0070142 41.67816162 -0.00442123 C43.09438078 -0.00375308 44.51060144 -0.00457651 45.92681885 -0.00690079 C47.90433728 -0.00943384 49.88186099 -0.00489004 51.859375 0 C53.54909424 0.00119339 53.54909424 0.00119339 55.27294922 0.00241089 C57.9296875 0.12939453 57.9296875 0.12939453 59.9296875 1.12939453 C61.95001221 1.17473141 63.97172153 1.16792547 65.9921875 1.12939453 C67.97099608 1.09174776 69.95107009 1.08277026 71.9296875 1.12939453 C72.2596875 1.45939453 72.5896875 1.78939453 72.9296875 2.12939453 C74.59571153 2.17567298 76.26345111 2.16726354 77.9296875 2.12939453 C79.59592389 2.09152552 81.26366347 2.08311609 82.9296875 2.12939453 C83.2596875 2.45939453 83.5896875 2.78939453 83.9296875 3.12939453 C86.45278179 3.20174132 88.96117197 3.12574475 91.484375 3.06689453 C93.9296875 3.12939453 93.9296875 3.12939453 96.9296875 4.12939453 C97.5896875 4.12939453 98.2496875 4.12939453 98.9296875 4.12939453 C98.9296875 4.78939453 98.9296875 5.44939453 98.9296875 6.12939453 C100.5796875 6.45939453 102.2296875 6.78939453 103.9296875 7.12939453 C103.9296875 7.78939453 103.9296875 8.44939453 103.9296875 9.12939453 C104.52136719 9.17837891 105.11304688 9.22736328 105.72265625 9.27783203 C110.19955198 9.70142086 113.75795522 10.41791462 117.9296875 12.12939453 C124.38019936 13.39287978 124.38019936 13.39287978 130.73046875 12.49658203 C138.14623193 11.25842619 148.81962131 18.05601707 154.9296875 22.12939453 C157.79234986 24.5149465 159.52032084 26.1315633 160.9296875 29.56689453 C160.9296875 33.32583135 160.08817964 35.01862645 157.9296875 38.12939453 C148.02846215 46.66568072 134.98589457 49.85545198 122.640625 53.11376953 C119.14376649 53.94100384 119.14376649 53.94100384 116.9296875 55.12939453 C114.59720989 55.468664 112.26383279 55.80179519 109.9296875 56.12939453 C108.9396875 56.45939453 107.9496875 56.78939453 106.9296875 57.12939453 C105.7746875 57.10876953 104.6196875 57.08814453 103.4296875 57.06689453 C99.81429813 56.81649693 99.81429813 56.81649693 96.9296875 59.12939453 C94.44921875 59.10595703 94.44921875 59.10595703 91.7421875 58.75439453 C90.84113281 58.64353516 89.94007813 58.53267578 89.01171875 58.41845703 C88.32464844 58.32306641 87.63757813 58.22767578 86.9296875 58.12939453 C86.9296875 58.78939453 86.9296875 59.44939453 86.9296875 60.12939453 C86.32640625 60.11779297 85.723125 60.10619141 85.1015625 60.09423828 C84.30234375 60.08521484 83.503125 60.07619141 82.6796875 60.06689453 C81.89078125 60.05529297 81.101875 60.04369141 80.2890625 60.03173828 C78.00989819 60.12607455 76.13082542 60.57364003 73.9296875 61.12939453 C72.53446875 61.17081104 71.13739235 61.17127685 69.7421875 61.12939453 C68.4840625 61.12939453 67.2259375 61.12939453 65.9296875 61.12939453 C65.5996875 61.45939453 65.2696875 61.78939453 64.9296875 62.12939453 C63.33058835 62.22861281 61.72717299 62.26019317 60.125 62.26220703 C58.66126953 62.26414062 58.66126953 62.26414062 57.16796875 62.26611328 C56.14058594 62.26224609 55.11320313 62.25837891 54.0546875 62.25439453 C53.03503906 62.25826172 52.01539063 62.26212891 50.96484375 62.26611328 C49.49724609 62.26417969 49.49724609 62.26417969 48 62.26220703 C46.65059326 62.26051514 46.65059326 62.26051514 45.27392578 62.25878906 C42.9296875 62.12939453 42.9296875 62.12939453 39.9296875 61.12939453 C37.78942143 61.0341438 35.64628978 60.99866331 33.50390625 60.99658203 C32.23224609 60.99529297 30.96058594 60.99400391 29.65039062 60.99267578 C28.65664429 60.99581787 28.65664429 60.99581787 27.64282227 60.99902344 C25.63493433 61.00434747 23.62702699 60.99856113 21.61914062 60.99267578 C20.34361328 60.99396484 19.06808594 60.99525391 17.75390625 60.99658203 C16.58947998 60.99770996 15.42505371 60.99883789 14.2253418 61 C11.03776686 61.1251511 8.06932799 61.59247203 4.9296875 62.12939453 C3.13150193 62.2049827 1.33099243 62.2376375 -0.46875 62.22705078 C-1.44199219 62.22382812 -2.41523438 62.22060547 -3.41796875 62.21728516 C-4.41699219 62.20890625 -5.41601562 62.20052734 -6.4453125 62.19189453 C-7.46753906 62.18738281 -8.48976563 62.18287109 -9.54296875 62.17822266 C-12.05214444 62.16649754 -14.5611974 62.15008629 -17.0703125 62.12939453 C-17.0703125 61.79939453 -17.0703125 61.46939453 -17.0703125 61.12939453 C-20.0403125 61.12939453 -23.0103125 61.12939453 -26.0703125 61.12939453 C-26.0703125 60.46939453 -26.0703125 59.80939453 -26.0703125 59.12939453 C-31.0203125 59.62439453 -31.0203125 59.62439453 -36.0703125 60.12939453 C-36.0703125 59.46939453 -36.0703125 58.80939453 -36.0703125 58.12939453 C-37.2459375 58.22220703 -37.2459375 58.22220703 -38.4453125 58.31689453 C-39.3115625 58.25501953 -40.1778125 58.19314453 -41.0703125 58.12939453 C-41.7303125 57.13939453 -42.3903125 56.14939453 -43.0703125 55.12939453 C-45.6120832 54.96267601 -45.6120832 54.96267601 -48.0703125 55.12939453 C-48.4003125 54.79939453 -48.7303125 54.46939453 -49.0703125 54.12939453 C-49.8128125 54.12939453 -50.5553125 54.12939453 -51.3203125 54.12939453 C-66.35446956 54.12939453 -85.7205526 47.66370534 -97.546875 38.65673828 C-99.33070681 36.86833254 -100.25215715 35.52667769 -101.0703125 33.12939453 C-100.73418318 27.8906961 -98.10787343 25.47310163 -94.45703125 21.99267578 C-90.66881019 19.03525934 -86.6137438 17.56980783 -82.0703125 16.12939453 C-81.0184375 15.75814453 -79.9665625 15.38689453 -78.8828125 15.00439453 C-70.09686117 12.27098745 -70.09686117 12.27098745 -65.4453125 11.62939453 C-62.31839705 11.1661478 -59.97269006 10.30603408 -57.0703125 9.12939453 C-55.7503125 9.12939453 -54.4303125 9.12939453 -53.0703125 9.12939453 C-52.4103125 8.46939453 -51.7503125 7.80939453 -51.0703125 7.12939453 C-48.9453125 7.50439453 -48.9453125 7.50439453 -47.0703125 8.12939453 C-46.4103125 7.13939453 -45.7503125 6.14939453 -45.0703125 5.12939453 C-40.58810276 3.49166405 -36.80663393 3.02175086 -32.0703125 3.12939453 C-31.0803125 2.79939453 -30.0903125 2.46939453 -29.0703125 2.12939453 C-26.73697917 2.12939453 -24.40364583 2.12939453 -22.0703125 2.12939453 C-21.44253906 1.96439453 -20.81476563 1.79939453 -20.16796875 1.62939453 C-17.69109477 1.03900371 -15.48774772 1.06867966 -12.9453125 1.12939453 C-8.37948241 1.23778219 -4.62729969 0.0032681 0 0 Z " fill="#9F9F9F" transform="translate(338.0703125,800.87060546875)"/>
<path d="M0 0 C4.16138263 -0.08159574 7.9472484 0.01751476 12 1 C12 1.66 12 2.32 12 3 C13.98 3 15.96 3 18 3 C17.67 3.66 17.34 4.32 17 5 C16.36191406 4.98839844 15.72382813 4.97679687 15.06640625 4.96484375 C14.24011719 4.95582031 13.41382813 4.94679688 12.5625 4.9375 C11.73878906 4.92589844 10.91507812 4.91429687 10.06640625 4.90234375 C8.00836062 4.76732652 8.00836062 4.76732652 7 6 C5.14375 5.9690625 5.14375 5.9690625 3.25 5.9375 C-0.28431423 5.89949662 -2.85273423 6.24123384 -6 8 C-6.66 8.99 -7.32 9.98 -8 11 C-8.61875 10.79375 -9.2375 10.5875 -9.875 10.375 C-10.57625 10.25125 -11.2775 10.1275 -12 10 C-12.66 10.66 -13.32 11.32 -14 12 C-16.125 11.625 -16.125 11.625 -18 11 C-18.33 11.66 -18.66 12.32 -19 13 C-19.99 12.67 -20.98 12.34 -22 12 C-22.33 12.66 -22.66 13.32 -23 14 C-25.31 14 -27.62 14 -30 14 C-30.33 14.66 -30.66 15.32 -31 16 C-32.98 16 -34.96 16 -37 16 C-37.33 16.66 -37.66 17.32 -38 18 C-38.99 18 -39.98 18 -41 18 C-41.66 18.66 -42.32 19.32 -43 20 C-44.32 20 -45.64 20 -47 20 C-52.47216429 22.50345978 -57.2743127 26.31900826 -61 31 C-61.23906843 34.90478433 -60.40540588 36.46381803 -58.0625 39.5625 C-46.41390994 48.83382678 -30.29796708 51.9886131 -16 55 C-15.505 54.01 -15.505 54.01 -15 53 C-15 53.99 -15 54.98 -15 56 C-13.02 55.67 -11.04 55.34 -9 55 C-9 55.66 -9 56.32 -9 57 C-7.02 56.67 -5.04 56.34 -3 56 C-2.67 56.99 -2.34 57.98 -2 59 C-0.35 59.33 1.3 59.66 3 60 C3 60.66 3 61.32 3 62 C3.99 61.67 4.98 61.34 6 61 C8.33299825 60.96045766 10.66708189 60.95598268 13 61 C13 61.66 13 62.32 13 63 C13.495 62.835 13.99 62.67 14.5 62.5 C18.03444089 61.79311182 21.39690701 61.93994845 25 62 C25 62.33 25 62.66 25 63 C28.6041498 63.02900455 32.20826962 63.04680018 35.8125 63.0625 C37.34874023 63.07506836 37.34874023 63.07506836 38.91601562 63.08789062 C39.89892578 63.09111328 40.88183594 63.09433594 41.89453125 63.09765625 C42.80050049 63.10289307 43.70646973 63.10812988 44.63989258 63.11352539 C47.15284039 63.09920981 47.15284039 63.09920981 50 62 C52.12853826 61.90475133 54.25995771 61.86926881 56.390625 61.8671875 C57.65777344 61.86589844 58.92492187 61.86460937 60.23046875 61.86328125 C60.89095215 61.86537598 61.55143555 61.8674707 62.23193359 61.86962891 C64.22883519 61.87494367 66.22575627 61.86917181 68.22265625 61.86328125 C69.49496094 61.86457031 70.76726562 61.86585938 72.078125 61.8671875 C73.81690918 61.86887939 73.81690918 61.86887939 75.59082031 61.87060547 C79.12202657 62.00463149 82.50721771 62.47931153 86 63 C87.52712531 63.08127901 89.05665267 63.13038671 90.5859375 63.1328125 C91.37097656 63.13410156 92.15601563 63.13539063 92.96484375 63.13671875 C94.15787109 63.13091797 94.15787109 63.13091797 95.375 63.125 C96.19355469 63.12886719 97.01210938 63.13273438 97.85546875 63.13671875 C101.73909246 63.51330956 101.73909246 63.51330956 105 62 C107.84810965 61.92789596 110.68303927 62.00377401 113.53125 62.0625 C115.94458856 62.28507296 115.94458856 62.28507296 117 61 C118.52519276 61.08937803 120.04681929 61.24537146 121.5625 61.4375 C122.38878906 61.53933594 123.21507812 61.64117188 124.06640625 61.74609375 C124.70449219 61.82988281 125.34257812 61.91367187 126 62 C126 61.34 126 60.68 126 60 C128.64 60 131.28 60 134 60 C134 59.67 134 59.34 134 59 C138.39827972 58.29627524 142.55492863 58 147 58 C149.05396726 57.59070014 149.05396726 57.59070014 151 57 C151.78375 56.855625 152.5675 56.71125 153.375 56.5625 C156.01758406 56.04863027 156.01758406 56.04863027 158.56640625 55.1328125 C161.20680847 54.26169004 163.826205 53.47687125 166.50390625 52.73828125 C184.42650741 48.36033629 184.42650741 48.36033629 198 37 C199.14142374 33.82031959 199.24431488 32.556495 197.875 29.4375 C192.02195627 21.82854316 181.94967459 17.83261903 172.875 15.4375 C171.59625 15.293125 170.3175 15.14875 169 15 C167.24766296 16.39205066 167.24766296 16.39205066 166 18 C165.67 17.34 165.34 16.68 165 16 C164.34 16.33 163.68 16.66 163 17 C163 16.34 163 15.68 163 15 C160.69 15 158.38 15 156 15 C156 14.34 156 13.68 156 13 C154.68 13.33 153.36 13.66 152 14 C152 13.34 152 12.68 152 12 C150.35 12.33 148.7 12.66 147 13 C147 12.34 147 11.68 147 11 C145.35 11.33 143.7 11.66 142 12 C142 11.01 142 10.02 142 9 C141.0409375 8.8453125 141.0409375 8.8453125 140.0625 8.6875 C139.381875 8.460625 138.70125 8.23375 138 8 C137.67 7.01 137.34 6.02 137 5 C138.62200515 3.37799485 140.42023031 3.8700925 142.65625 3.8671875 C143.59597656 3.86589844 144.53570312 3.86460937 145.50390625 3.86328125 C146.49261719 3.86714844 147.48132813 3.87101563 148.5 3.875 C149.98306641 3.86919922 149.98306641 3.86919922 151.49609375 3.86328125 C152.90568359 3.86521484 152.90568359 3.86521484 154.34375 3.8671875 C155.21193359 3.86831543 156.08011719 3.86944336 156.97460938 3.87060547 C159 4 159 4 160 5 C160.825 5 161.65 5 162.5 5 C163.325 5 164.15 5 165 5 C165.33 5.33 165.66 5.66 166 6 C167.27230469 6.12503906 168.54460937 6.25007812 169.85546875 6.37890625 C175.52053524 6.95427333 180.84258938 8.39943343 186.3125 9.9375 C187.28767578 10.20240234 188.26285156 10.46730469 189.26757812 10.74023438 C193.39323067 11.88137231 197.21315072 12.9709995 201 15 C201 14.34 201 13.68 201 13 C201.66 13 202.32 13 203 13 C203.33 13.99 203.66 14.98 204 16 C206.12031986 17.28844635 206.12031986 17.28844635 208.6875 18.375 C214.31465312 21.04769648 218.48311085 23.72466628 222 29 C222.60524116 33.53930867 222.71649974 36.70386575 220 40.5 C213.86535953 46.91415646 204.15038007 50.31402135 196.05859375 53.609375 C192.9111724 54.65338567 192.9111724 54.65338567 192 57 C189.93359375 57.8515625 189.93359375 57.8515625 187.4375 58.625 C186.61121094 58.88539063 185.78492188 59.14578125 184.93359375 59.4140625 C184.29550781 59.60742188 183.65742188 59.80078125 183 60 C186.33934973 61.11311658 187.27662535 60.88579212 190.578125 59.99609375 C191.48473877 59.75310547 192.39135254 59.51011719 193.32543945 59.25976562 C194.29054443 58.98841797 195.25564941 58.71707031 196.25 58.4375 C197.23766357 58.16228516 198.22532715 57.88707031 199.24291992 57.60351562 C220.91512199 51.65462919 220.91512199 51.65462919 237 37 C237.70192348 32.97989279 237.90874568 30.74054112 236.03125 27.14453125 C231.9009729 21.70553263 226.03132218 18.92980597 220 16 C220 15.01 220 14.02 220 13 C212.575 10.525 212.575 10.525 205 8 C208.97906653 7.00523337 209.60921537 6.9115958 213.16015625 8.22265625 C214.34327393 8.655177 214.34327393 8.655177 215.55029297 9.09643555 C216.79383545 9.57463745 216.79383545 9.57463745 218.0625 10.0625 C218.91215332 10.38323486 219.76180664 10.70396973 220.63720703 11.03442383 C242.66005682 19.53590701 242.66005682 19.53590701 247.3984375 29.91796875 C248.43106955 33.49194849 247.52868157 35.69804781 246 39 C242.611205 43.60169106 239.24645585 46.47141562 234.1875 49.1875 C233.5702002 49.52773193 232.95290039 49.86796387 232.31689453 50.21850586 C220.77722011 56.47307604 220.77722011 56.47307604 215 55 C212.29534258 55.86454438 212.29534258 55.86454438 210 57 C210.99 57.33 211.98 57.66 213 58 C211.68 58.99 210.36 59.98 209 61 C209 60.34 209 59.68 209 59 C207.51800098 59.44909061 206.03944764 59.90956564 204.5625 60.375 C203.73878906 60.63023437 202.91507812 60.88546875 202.06640625 61.1484375 C199.82201984 61.80882227 199.82201984 61.80882227 199 64 C195.9375 64.625 195.9375 64.625 193 65 C193 64.34 193 63.68 193 63 C192.16984375 63.93457031 191.3396875 64.86914062 190.484375 65.83203125 C184.779468 70.68348188 177.405444 70.83745521 170.25 71.6875 C168.69768076 71.88911323 167.14551793 72.09193411 165.59350586 72.29589844 C149.12326712 74.40822133 132.56812673 75.9100196 116 77 C114.91995193 77.0725853 114.91995193 77.0725853 113.81808472 77.14663696 C97.86865055 78.18234834 81.91497171 78.19833257 65.9375 78.1875 C64.55510457 78.18755616 63.17270915 78.18761723 61.79031372 78.18768311 C40.79912137 78.18024303 19.92630684 77.72816193 -1 76 C-2.12132324 75.91459961 -3.24264648 75.82919922 -4.39794922 75.74121094 C-7.4334404 75.50893779 -10.46684054 75.26082063 -13.5 75 C-14.76662476 74.89389404 -14.76662476 74.89389404 -16.05883789 74.78564453 C-19.76167328 74.4240256 -21.84830323 74.10113118 -25 72 C-23.68 71.67 -22.36 71.34 -21 71 C-24.82989106 69.19769832 -27.78121808 68.80377759 -32 69 C-30.3125 66.5 -30.3125 66.5 -28 64 C-25.09171697 63.584531 -23.62130489 63.68934755 -21 65 C-20.195625 65 -19.39125 65 -18.5625 65 C-16 65 -16 65 -13 66 C-12.67 65.67 -12.34 65.34 -12 65 C-13.299375 64.855625 -14.59875 64.71125 -15.9375 64.5625 C-19.875 64.125 -19.875 64.125 -21 63 C-21.825 63 -22.65 63 -23.5 63 C-24.325 63 -25.15 63 -26 63 C-26.33 62.67 -26.66 62.34 -27 62 C-27.825 62 -28.65 62 -29.5 62 C-30.325 62 -31.15 62 -32 62 C-32.33 61.67 -32.66 61.34 -33 61 C-34.53610616 60.78812329 -36.07986899 60.63070595 -37.625 60.5 C-40.67327497 60.23154397 -43.60463961 59.89575179 -46.625 59.375 C-50.66091861 58.9265646 -53.99687553 59.36792771 -58 60 C-57.01 59.01 -56.02 58.02 -55 57 C-55.598125 56.71125 -56.19625 56.4225 -56.8125 56.125 C-59 55 -59 55 -62 53 C-66.43012262 51.13751399 -66.43012262 51.13751399 -71 52 C-73.37687306 51.04925078 -75.55099855 50.04955991 -77.8125 48.875 C-78.41642578 48.57851563 -79.02035156 48.28203125 -79.64257812 47.9765625 C-84.50884914 45.50414063 -89.16710862 42.58271059 -92.375 38.0625 C-93.50881178 34.32092112 -93.9060402 31.69926606 -91.99609375 28.1171875 C-85.0136201 18.81937663 -71.84369985 14.09819996 -61 11 C-61 10.34 -61 9.68 -61 9 C-60.2575 8.71125 -59.515 8.4225 -58.75 8.125 C-56.07763188 7.09797087 -56.07763188 7.09797087 -54 5.875 C-51.53941582 4.79849442 -49.66665257 4.93333369 -47 5 C-44.21626692 4.54711413 -44.21626692 4.54711413 -42 3 C-40.53717967 3.09033353 -39.07817808 3.24703491 -37.625 3.4375 C-35.0278572 3.77166007 -32.62588307 4 -30 4 C-28 4 -26 4 -24 4 C-24 3.67 -24 3.34 -24 3 C-21.69 3 -19.38 3 -17 3 C-17 2.67 -17 2.34 -17 2 C-14.36 2 -11.72 2 -9 2 C-9 1.67 -9 1.34 -9 1 C-6.03 1 -3.06 1 0 1 C0 0.67 0 0.34 0 0 Z M-18 69 C-17.34 69.66 -16.68 70.32 -16 71 C-15.67 70.34 -15.34 69.68 -15 69 C-15.99 69 -16.98 69 -18 69 Z " fill="#8D8D8D" transform="translate(299,799)"/>
<path d="M0 0 C10.09887788 0.55764036 19.92661735 1.9560853 29.875 3.6875 C31.02319214 3.88582932 31.02319214 3.88582932 32.19458008 4.08816528 C94.774826 14.97426961 94.774826 14.97426961 109 35 C110.77033984 38.54067969 109.87945938 42.24636539 109 46 C101.88794831 58.44609046 82.58388119 64.27217405 69.6015625 67.96728516 C46.93667736 74.08958289 46.93667736 74.08958289 36 75 C36.99 73.35 37.98 71.7 39 70 C41.64 70.33 44.28 70.66 47 71 C47.495 69.515 47.495 69.515 48 68 C50.03125 67.3046875 50.03125 67.3046875 52.5 66.875 C55.53930366 66.52112584 55.53930366 66.52112584 58 65 C56.02 64.505 56.02 64.505 54 64 C55.4117783 63.46605821 56.82970244 62.94834896 58.25 62.4375 C59.03890625 62.14746094 59.8278125 61.85742188 60.640625 61.55859375 C63 61 63 61 64.92407227 61.53930664 C68.47395196 62.32710189 71.49890539 60.44858694 74.6875 59 C75.39994873 58.67966797 76.11239746 58.35933594 76.84643555 58.02929688 C83.6134554 54.88177416 90.59762974 51.37291401 94.1875 44.5 C95.19368489 40.16566507 94.80207786 38.05467518 93 34 C85.41312905 24.2793216 70.67174581 18.91793645 59 16 C62.63 17.32 66.26 18.64 70 20 C69.34 20.33 68.68 20.66 68 21 C68 21.66 68 22.32 68 23 C68.825 23.20625 69.65 23.4125 70.5 23.625 C76.57542075 26.01177244 82.71793455 30.25638546 86 36 C86.75486298 40.18605834 86.933368 42.41059059 84.77734375 46.08203125 C73.54599526 59.96854486 51.05902489 66.18784559 34 69 C30.91245505 68.62512102 30.24325386 68.24325386 28 66 C31.96 65.01 35.92 64.02 40 63 C40 62.34 40 61.68 40 61 C40.96679688 60.63648438 41.93359375 60.27296875 42.9296875 59.8984375 C58.07518216 54.71432059 58.07518216 54.71432059 69 44 C69.77278056 39.97167581 69.53470096 37.02079273 67.625 33.375 C62.47917725 28.7192556 56.47339516 25.44344612 50 23 C50.495 21.515 50.495 21.515 51 20 C50.34 20 49.68 20 49 20 C49 20.66 49 21.32 49 22 C48.37996094 21.82984375 47.75992188 21.6596875 47.12109375 21.484375 C45.21967775 20.96404573 43.31722537 20.4474969 41.4140625 19.93359375 C39.00840852 19.27575473 36.60774058 18.599546 34.2109375 17.91015625 C27.66700203 16.05277183 21.82562335 14.5904626 15 15 C14.505 14.505 14.505 14.505 14 14 C12.54704215 13.79160764 11.0868369 13.63246419 9.625 13.5 C6.82678686 13.24478838 4.69189489 12.8972983 2 12 C0.3366432 11.80302354 -1.33080651 11.63909946 -3 11.5 C-5.93390493 11.25550792 -8.1870802 10.93763993 -11 10 C-12.2684375 10.061875 -12.2684375 10.061875 -13.5625 10.125 C-14.366875 10.08375 -15.17125 10.0425 -16 10 C-16.66 9.01 -17.32 8.02 -18 7 C-16.84371094 6.92652344 -16.84371094 6.92652344 -15.6640625 6.8515625 C-14.66117187 6.77679687 -13.65828125 6.70203125 -12.625 6.625 C-11.62726563 6.55539062 -10.62953125 6.48578125 -9.6015625 6.4140625 C-6.84491121 6.23636036 -6.84491121 6.23636036 -5 4 C-3.68 4 -2.36 4 -1 4 C-0.67 2.68 -0.34 1.36 0 0 Z " fill="#868686" transform="translate(451,792)"/>
<path d="M0 0 C-3 2 -3 2 -6 3 C-1.05 2.67 3.9 2.34 9 2 C7.02 2.99 7.02 2.99 5 4 C6.19874756 3.9292627 7.39749512 3.85852539 8.63256836 3.78564453 C24.46887389 2.92362587 40.28984198 2.84471245 56.14379883 2.86962891 C59.84794581 2.87537288 63.55202102 2.87199948 67.2561655 2.86605644 C70.1638593 2.86241261 73.07153654 2.86360601 75.97923088 2.86618423 C77.99572167 2.86715352 80.01221317 2.86417519 82.02870178 2.86105347 C90.06362335 2.88132544 97.99886037 3.26128422 106 4 C104.02 3.01 104.02 3.01 102 2 C107.28 2.33 112.56 2.66 118 3 C117.01 2.34 116.02 1.68 115 1 C125.55808656 1.96355353 125.55808656 1.96355353 130 3 C130 3.66 130 4.32 130 5 C132.31 5.33 134.62 5.66 137 6 C137 5.34 137 4.68 137 4 C141.62 4.99 146.24 5.98 151 7 C151 7.33 151 7.66 151 8 C97.6725217 13.86778648 43.51950378 15.53994083 -10 11 C-11.13727539 10.90396484 -12.27455078 10.80792969 -13.44628906 10.70898438 C-19.3048139 10.20104975 -25.15426594 9.63821022 -31 9 C-31 8.67 -31 8.34 -31 8 C-29.20909747 7.80533668 -27.41723495 7.61948787 -25.625 7.4375 C-24.12839844 7.28087891 -24.12839844 7.28087891 -22.6015625 7.12109375 C-20 7 -20 7 -18 8 C-17.67 7.01 -17.34 6.02 -17 5 C-15.68 5 -14.36 5 -13 5 C-12.67 4.01 -12.34 3.02 -12 2 C-7.9083139 0.19204568 -4.44280672 -0.21156222 0 0 Z " fill="#898989" transform="translate(308,864)"/>
<path d="M0 0 C20.05853105 2.13533626 48.25685086 8.78417077 62.1875 24.3125 C64.98766228 27.78034088 66.22748923 29.74426815 65.875 34.25 C65.22056693 39.02127369 63.74456094 41.95119256 60 45 C41.04629545 58.89366578 15.12346386 66.07510119 -8 68 C-7.01 66.35 -6.02 64.7 -5 63 C-2.36 63.33 0.28 63.66 3 64 C3.33 63.01 3.66 62.02 4 61 C6.03125 60.3046875 6.03125 60.3046875 8.5 59.875 C11.53930366 59.52112584 11.53930366 59.52112584 14 58 C12.68 57.67 11.36 57.34 10 57 C11.4117783 56.46605821 12.82970244 55.94834896 14.25 55.4375 C15.03890625 55.14746094 15.8278125 54.85742188 16.640625 54.55859375 C19 54 19 54 20.92407227 54.53930664 C24.47395196 55.32710189 27.49890539 53.44858694 30.6875 52 C31.39994873 51.67966797 32.11239746 51.35933594 32.84643555 51.02929688 C39.6134554 47.88177416 46.59762974 44.37291401 50.1875 37.5 C51.19368489 33.16566507 50.80207786 31.05467518 49 27 C39.75327168 15.15262934 21.62424803 10.42766057 7.6328125 6.859375 C6.76398438 6.57578125 5.89515625 6.2921875 5 6 C4.67 5.34 4.34 4.68 4 4 C1.47266765 3.34444881 1.47266765 3.34444881 -1 3 C-0.67 2.01 -0.34 1.02 0 0 Z " fill="#7B7B7B" transform="translate(495,799)"/>
<path d="M0 0 C-2 2 -2 2 -5 3 C-5.66 3.66 -6.32 4.32 -7 5 C-7 4.34 -7 3.68 -7 3 C-9.64 3.99 -12.28 4.98 -15 6 C-15 6.66 -15 7.32 -15 8 C-15.90621094 8.35191406 -16.81242187 8.70382812 -17.74609375 9.06640625 C-26.37905496 12.56526778 -33.99516141 16.14565019 -40.0625 23.5 C-41.40686585 27.08497561 -41.64674839 29.18418449 -41 33 C-34.24372707 44.50573211 -17.93197367 50.282612 -5.55859375 53.66796875 C-5.04425781 53.77753906 -4.52992188 53.88710938 -4 54 C-4 55.65 -4 57.3 -4 59 C-3.01 59.495 -3.01 59.495 -2 60 C-19.65035734 56.83881229 -43.53634578 51.04096475 -55 36 C-56.74048682 32.51902637 -56.44435742 28.80601794 -56 25 C-51.29956178 15.01156879 -39.34988513 9.69822071 -29.47021484 6.07128906 C-8.11036577 -1.40371715 -8.11036577 -1.40371715 0 0 Z " fill="#7F7F7F" transform="translate(223,803)"/>
<path d="M0 0 C0.495 0.99 0.495 0.99 1 2 C-1.31 2.33 -3.62 2.66 -6 3 C-6 3.33 -6 3.66 -6 4 C-10.95 3.67 -15.9 3.34 -21 3 C-21 3.66 -21 4.32 -21 5 C-23.64 5 -26.28 5 -29 5 C-29 5.33 -29 5.66 -29 6 C-31.64 6 -34.28 6 -37 6 C-37 6.33 -37 6.66 -37 7 C-39.31 7 -41.62 7 -44 7 C-42.35 7.33 -40.7 7.66 -39 8 C-39 8.99 -39 9.98 -39 11 C-41.31 11 -43.62 11 -46 11 C-46 11.33 -46 11.66 -46 12 C-47.36125 11.9690625 -47.36125 11.9690625 -48.75 11.9375 C-51.50802705 11.99053898 -53.38980125 12.28812761 -56 13 C-58.33333333 13.33333333 -60.66666667 13.66666667 -63 14 C-64.33783393 14.31478446 -65.67203709 14.64587656 -67 15 C-67.825 15.12375 -68.65 15.2475 -69.5 15.375 C-72.32171186 16.08042797 -73.75473239 17.18930031 -76 19 C-79.76843687 21.1056254 -83.83794684 22.50369773 -87.875 24 C-88.56980469 24.26039063 -89.26460937 24.52078125 -89.98046875 24.7890625 C-93.96232648 26.27382301 -97.95884953 27.68250894 -102 29 C-102 28.34 -102 27.68 -102 27 C-110.19091373 31.20682303 -110.19091373 31.20682303 -116 38 C-116.63605129 41.943518 -116.87365771 44.31635194 -115.03515625 47.859375 C-110.89055816 53.28939916 -105.0349004 56.06845586 -99 59 C-99 59.33 -99 59.66 -99 60 C-106.83440061 60.58378544 -112.991317 56.36594058 -118.8515625 51.4453125 C-122.06752028 47.96605993 -123 44.66801768 -123 40 C-120.55517333 33.48046222 -113.63689774 28.65057862 -107.625 25.5625 C-104 24 -104 24 -102 24 C-101.67 23.01 -101.34 22.02 -101 21 C-98.21875 19.75390625 -98.21875 19.75390625 -94.5 18.5625 C-93.84306152 18.35077148 -93.18612305 18.13904297 -92.50927734 17.92089844 C-86.53982627 16.05115255 -80.48098481 14.59569138 -74.37304688 13.25610352 C-70.89621092 12.73451262 -70.89621092 12.73451262 -68 11 C-68.59167969 11.01160156 -69.18335938 11.02320313 -69.79296875 11.03515625 C-76.4866708 11.1115933 -76.4866708 11.1115933 -79.875 10.375 C-82.29254346 9.69607614 -82.29254346 9.69607614 -85 12 C-87.12109375 12.484375 -87.12109375 12.484375 -89.4375 12.75 C-90.19933594 12.84796875 -90.96117187 12.9459375 -91.74609375 13.046875 C-94.34385965 12.99284867 -95.73801486 12.21312506 -98 11 C-27.38679636 -5.58914211 -27.38679636 -5.58914211 0 0 Z " fill="#838383" transform="translate(318,790)"/>
<path d="M0 0 C1.40958984 -0.00193359 1.40958984 -0.00193359 2.84765625 -0.00390625 C3.83636719 -0.00003906 4.82507813 0.00382813 5.84375 0.0078125 C7.32681641 0.00201172 7.32681641 0.00201172 8.83984375 -0.00390625 C9.77957031 -0.00261719 10.71929687 -0.00132812 11.6875 0 C12.55568359 0.00112793 13.42386719 0.00225586 14.31835938 0.00341797 C16.34375 0.1328125 16.34375 0.1328125 17.34375 1.1328125 C18.16875 1.1328125 18.99375 1.1328125 19.84375 1.1328125 C20.66875 1.1328125 21.49375 1.1328125 22.34375 1.1328125 C22.67375 1.4628125 23.00375 1.7928125 23.34375 2.1328125 C24.61605469 2.25785156 25.88835937 2.38289062 27.19921875 2.51171875 C32.86428524 3.08708583 38.18633938 4.53224593 43.65625 6.0703125 C44.63142578 6.33521484 45.60660156 6.60011719 46.61132812 6.87304688 C50.73698067 8.01418481 54.55690072 9.103812 58.34375 11.1328125 C58.34375 10.4728125 58.34375 9.8128125 58.34375 9.1328125 C59.00375 9.1328125 59.66375 9.1328125 60.34375 9.1328125 C60.83875 10.6178125 60.83875 10.6178125 61.34375 12.1328125 C63.46406986 13.42125885 63.46406986 13.42125885 66.03125 14.5078125 C71.65840312 17.18050898 75.82686085 19.85747878 79.34375 25.1328125 C79.96842552 29.81787891 80.04656405 32.85024006 77.15625 36.6953125 C72.62108775 41.4158059 66.3628717 44.6898045 60.34375 47.1328125 C58.85875 46.6378125 58.85875 46.6378125 57.34375 46.1328125 C58.22417969 45.69710937 59.10460937 45.26140625 60.01171875 44.8125 C69.81357889 39.82673895 69.81357889 39.82673895 76.34375 31.1953125 C76.34375 27.74006566 75.22855578 24.95686932 73.34375 22.1328125 C71.11795574 20.1587156 68.88583393 18.71561947 66.34375 17.1328125 C67.106875 17.8753125 67.87 18.6178125 68.65625 19.3828125 C74.18131345 25.0363658 74.18131345 25.0363658 74.84375 29.5078125 C74.20132444 34.16539783 72.71620623 35.9069848 69.34375 39.1328125 C66.03125 41.0078125 66.03125 41.0078125 63.34375 42.1328125 C64.47443534 39.58877048 65.56299052 37.89422723 67.46875 35.8203125 C69.97783097 32.22396312 70.08686782 30.44289585 69.34375 26.1328125 C65.87453189 18.73400611 57.44776553 15.76795905 50.31347656 12.84130859 C47.04697518 11.66637218 43.7270426 10.90174264 40.34375 10.1328125 C40.01375 10.7928125 39.68375 11.4528125 39.34375 12.1328125 C39.88902344 12.27976562 40.43429687 12.42671875 40.99609375 12.578125 C48.57400183 14.83206689 56.40054505 18.74783944 61.34375 25.1328125 C62.57595995 28.25441104 62.44527547 29.77356854 61.53125 33.0078125 C55.05404482 42.26096276 43.72831743 45.91489319 33.34375 49.1328125 C32.35375 49.1328125 31.36375 49.1328125 30.34375 49.1328125 C30.34375 48.4728125 30.34375 47.8128125 30.34375 47.1328125 C31.16617188 46.84148438 31.98859375 46.55015625 32.8359375 46.25 C45.62084916 41.80601504 45.62084916 41.80601504 55.59375 33.1328125 C56.56326738 29.25474297 56.21989086 27.65995732 54.34375 24.1328125 C47.54178936 16.77934154 36.17560992 12.2428612 26.34375 11.1328125 C24.59141296 12.52486316 24.59141296 12.52486316 23.34375 14.1328125 C23.01375 13.4728125 22.68375 12.8128125 22.34375 12.1328125 C21.35375 12.6278125 21.35375 12.6278125 20.34375 13.1328125 C20.34375 12.4728125 20.34375 11.8128125 20.34375 11.1328125 C18.03375 11.1328125 15.72375 11.1328125 13.34375 11.1328125 C13.34375 10.4728125 13.34375 9.8128125 13.34375 9.1328125 C12.02375 9.4628125 10.70375 9.7928125 9.34375 10.1328125 C9.34375 9.4728125 9.34375 8.8128125 9.34375 8.1328125 C7.69375 8.4628125 6.04375 8.7928125 4.34375 9.1328125 C4.34375 8.4728125 4.34375 7.8128125 4.34375 7.1328125 C2.69375 7.4628125 1.04375 7.7928125 -0.65625 8.1328125 C-0.65625 7.1428125 -0.65625 6.1528125 -0.65625 5.1328125 C-1.295625 5.0296875 -1.935 4.9265625 -2.59375 4.8203125 C-3.274375 4.5934375 -3.955 4.3665625 -4.65625 4.1328125 C-4.98625 3.1428125 -5.31625 2.1528125 -5.65625 1.1328125 C-4.03424485 -0.48919265 -2.23601969 0.002905 0 0 Z " fill="#909090" transform="translate(441.65625,802.8671875)"/>
<path d="M0 0 C6.67728333 0.58660246 13.34063095 1.23581011 20 2 C20 2.33 20 2.66 20 3 C19.31711914 3.1451001 18.63423828 3.2902002 17.93066406 3.43969727 C-16.40600147 9.54927849 -16.40600147 9.54927849 -43 30 C-43.48911334 33.66835004 -43.16846388 35.6484232 -41.5625 39 C-27.80452656 55.10689574 -1.53422119 58.73252399 18 63 C14.25 65 14.25 65 12 65 C11.67 65.66 11.34 66.32 11 67 C8.0625 66.625 8.0625 66.625 5 66 C4.67 65.34 4.34 64.68 4 64 C1.47630543 63.20058692 -0.99718906 62.5063892 -3.5625 61.875 C-4.27341797 61.69324219 -4.98433594 61.51148438 -5.71679688 61.32421875 C-7.47602969 60.87555535 -9.23779417 60.43684043 -11 60 C-11 61.32 -11 62.64 -11 64 C-12.9375 63.6875 -12.9375 63.6875 -15 63 C-15.33 62.01 -15.66 61.02 -16 60 C-15.505 59.01 -15.505 59.01 -15 58 C-16.00289062 57.89042969 -17.00578125 57.78085937 -18.0390625 57.66796875 C-22.02826949 57.09335447 -25.65679635 55.83700207 -29.375 54.3125 C-30.02984375 54.0448584 -30.6846875 53.7772168 -31.359375 53.50146484 C-39.95318638 49.8775429 -47.93613785 45.09903418 -53 37 C-53.79996522 32.78200157 -53.40467476 30.84453863 -51.5625 27 C-45.46502813 19.86149634 -38.41041125 15.97412105 -29.8203125 12.359375 C-27.21472909 11.10349823 -25.96809545 10.01426778 -24 8 C-21.6739143 7.61936779 -19.33944736 7.28730055 -17 7 C-14.66411677 6.04415562 -14.66411677 6.04415562 -13 5 C-13.66 4.34 -14.32 3.68 -15 3 C-14.00419922 3.03480469 -14.00419922 3.03480469 -12.98828125 3.0703125 C-6.27138984 3.23624305 -6.27138984 3.23624305 0 1 C0 0.67 0 0.34 0 0 Z " fill="#939393" transform="translate(234,799)"/>
<path d="M0 0 C-0.66 1.32 -1.32 2.64 -2 4 C-2.61875 3.79375 -3.2375 3.5875 -3.875 3.375 C-4.57625 3.25125 -5.2775 3.1275 -6 3 C-6.66 3.66 -7.32 4.32 -8 5 C-10.125 4.625 -10.125 4.625 -12 4 C-12.33 4.66 -12.66 5.32 -13 6 C-13.99 5.67 -14.98 5.34 -16 5 C-16.33 5.66 -16.66 6.32 -17 7 C-19.31 7 -21.62 7 -24 7 C-24.33 7.66 -24.66 8.32 -25 9 C-26.98 9 -28.96 9 -31 9 C-31.33 9.66 -31.66 10.32 -32 11 C-32.99 11 -33.98 11 -35 11 C-35.66 11.66 -36.32 12.32 -37 13 C-38.32 13 -39.64 13 -41 13 C-46.47216429 15.50345978 -51.2743127 19.31900826 -55 24 C-55.23906843 27.90478433 -54.40540588 29.46381803 -52.0625 32.5625 C-40.41390994 41.83382678 -24.29796708 44.9886131 -10 48 C-9.505 47.01 -9.505 47.01 -9 46 C-9 46.99 -9 47.98 -9 49 C-6.03 48.505 -6.03 48.505 -3 48 C-3 48.66 -3 49.32 -3 50 C-1.02 49.67 0.96 49.34 3 49 C3.33 49.99 3.66 50.98 4 52 C5.65 52.33 7.3 52.66 9 53 C9 53.66 9 54.32 9 55 C7.3954444 54.85851011 5.79136233 54.71164314 4.1875 54.5625 C3.29417969 54.48128906 2.40085937 54.40007813 1.48046875 54.31640625 C-1 54 -1 54 -4 53 C-6.57111303 52.69996736 -9.14293256 52.49338587 -11.72265625 52.28125 C-14 52 -14 52 -16 51 C-17.83000316 50.72668784 -19.66427466 50.4817835 -21.5 50.25 C-36.64932759 47.94503064 -56.03928288 43.95033677 -67 32.375 C-69.18564019 28.68673219 -69.97631839 27.1715422 -69 23 C-66.23660559 18.97333957 -63.46842727 16.05306118 -59 14 C-58.34 14.33 -57.68 14.66 -57 15 C-57.928125 15.556875 -58.85625 16.11375 -59.8125 16.6875 C-63.02157843 19.01565494 -64.52510292 20.35613663 -66 24 C-65.89890232 28.85268873 -64.35310545 31.5452853 -61 35 C-60.34 35 -59.68 35 -59 35 C-59.825 34.13375 -60.65 33.2675 -61.5 32.375 C-63.40338916 30.05830348 -63.99398948 29.02885052 -64.625 26 C-63.80927883 22.08453837 -61.81156861 19.7204614 -59 17 C-55.80078125 15.0234375 -55.80078125 15.0234375 -52.3125 13.375 C-51.70035645 13.08214111 -51.08821289 12.78928223 -50.45751953 12.48754883 C-46.07273462 10.41666937 -41.62242007 8.53507651 -37.0859375 6.82421875 C-34.97914089 6.03888558 -34.97914089 6.03888558 -33.01171875 4.9296875 C-30.74479368 3.88205999 -28.91908298 3.63485093 -26.4375 3.4375 C-23.67915381 3.20957595 -21.65947335 2.88649112 -19 2 C-16.66752239 1.66073053 -14.33414529 1.32759934 -12 1 C-3.58064516 -0.87096774 -3.58064516 -0.87096774 0 0 Z " fill="#959595" transform="translate(293,806)"/>
<path d="M0 0 C26.05676936 -0.32680946 51.98774033 0.46236006 78 2 C78.69762451 2.04102844 79.39524902 2.08205688 80.11401367 2.12432861 C84.07888994 2.36158004 88.03968639 2.63381093 92 2.9375 C92.9065332 2.9998584 93.81306641 3.0622168 94.74707031 3.12646484 C98.95875083 3.49471302 101.21954226 3.78536475 104 7 C102.02 7 100.04 7 98 7 C97.67 7.66 97.34 8.32 97 9 C96.34 9 95.68 9 95 9 C95 8.34 95 7.68 95 7 C92.69 7.33 90.38 7.66 88 8 C88.99 8.99 88.99 8.99 90 10 C87.93827387 10.33808686 85.8755797 10.67027361 83.8125 11 C82.66394531 11.185625 81.51539063 11.37125 80.33203125 11.5625 C77.49584607 11.93489477 74.85280436 12.08596021 72 12 C73.32 11.34 74.64 10.68 76 10 C70.06 10.33 64.12 10.66 58 11 C59.32 10.34 60.64 9.68 62 9 C60.98421875 9.0721875 59.9684375 9.144375 58.921875 9.21875 C50.60066466 9.78748769 42.34601611 10.14226164 34 10 C34 9.67 34 9.34 34 9 C36.64 8.67 39.28 8.34 42 8 C25.83 8 9.66 8 -7 8 C-4.36 8.33 -1.72 8.66 1 9 C1 9.33 1 9.66 1 10 C-15.36144578 10.25301205 -15.36144578 10.25301205 -21 9 C-21.33 8.34 -21.66 7.68 -22 7 C-20.35 7 -18.7 7 -17 7 C-17 6.34 -17 5.68 -17 5 C-12.05 5 -7.1 5 -2 5 C-2.33 4.34 -2.66 3.68 -3 3 C1.62 3 6.24 3 11 3 C11 2.34 11 1.68 11 1 C7.37 1 3.74 1 0 1 C0 0.67 0 0.34 0 0 Z " fill="#7F7F7F" transform="translate(346,787)"/>
<path d="M0 0 C1.88525391 0.24556641 1.88525391 0.24556641 3.80859375 0.49609375 C9.23638634 1.09918182 14.60720338 1.11185202 20.0625 1.0625 C21.50399414 1.05573242 21.50399414 1.05573242 22.97460938 1.04882812 C25.31647422 1.03717706 27.65820181 1.02082025 30 1 C29.67 1.66 29.34 2.32 29 3 C36.92 3 44.84 3 53 3 C53 3.33 53 3.66 53 4 C67.19 4.33 81.38 4.66 96 5 C96 4.34 96 3.68 96 3 C103.59 3.33 111.18 3.66 119 4 C119 3.34 119 2.68 119 2 C125.57791873 2.41044485 131.74051886 2.86608597 138 5 C138 5.33 138 5.66 138 6 C94.73923776 9.71625465 50.26352492 9.66994888 7 6 C5.86272461 5.90396484 4.72544922 5.80792969 3.55371094 5.70898438 C-2.3048139 5.20104975 -8.15426594 4.63821022 -14 4 C-14 3.67 -14 3.34 -14 3 C-12.20909747 2.80533668 -10.41723495 2.61948787 -8.625 2.4375 C-7.12839844 2.28087891 -7.12839844 2.28087891 -5.6015625 2.12109375 C-3 2 -3 2 -1 3 C-0.67 2.01 -0.34 1.02 0 0 Z " fill="#787878" transform="translate(291,869)"/>
<path d="M0 0 C5.21464806 0.57415166 9.84511636 1.79967276 14.75 3.6875 C15.44520752 3.95224121 16.14041504 4.21698242 16.85668945 4.48974609 C26.78429686 8.36823677 37.74915849 12.73113384 42.3984375 22.91796875 C43.43106955 26.49194849 42.52868157 28.69804781 41 32 C37.611205 36.60169106 34.24645585 39.47141562 29.1875 42.1875 C28.5702002 42.52773193 27.95290039 42.86796387 27.31689453 43.21850586 C15.77722011 49.47307604 15.77722011 49.47307604 10 48 C7.29534258 48.86454438 7.29534258 48.86454438 5 50 C6.485 50.495 6.485 50.495 8 51 C6.68 51.99 5.36 52.98 4 54 C4 53.34 4 52.68 4 52 C2.51800098 52.44909061 1.03944764 52.90956564 -0.4375 53.375 C-1.26121094 53.63023437 -2.08492188 53.88546875 -2.93359375 54.1484375 C-5.17798016 54.80882227 -5.17798016 54.80882227 -6 57 C-9.0625 57.625 -9.0625 57.625 -12 58 C-12 57.34 -12 56.68 -12 56 C-13.051875 56.185625 -14.10375 56.37125 -15.1875 56.5625 C-18.57119882 56.95079331 -20.76425888 56.88247485 -24 56 C-24 55.67 -24 55.34 -24 55 C-23.03513672 54.77449463 -23.03513672 54.77449463 -22.05078125 54.54443359 C7.30375478 48.69156323 7.30375478 48.69156323 30.9921875 31.8515625 C32.82563079 28.48314343 33.05300063 25.6746091 32 22 C28.44916366 15.24057661 21.59810861 12.20513105 15 9 C15 8.01 15 7.02 15 6 C10.05 4.35 5.1 2.7 0 1 C0 0.67 0 0.34 0 0 Z " fill="#929292" transform="translate(504,806)"/>
<path d="M0 0 C3.87564478 0.71156269 7.49633175 1.18887631 11.4375 1.125 C15.3125 1.0625 15.3125 1.0625 17.3125 2.0625 C19.01613822 2.28872081 20.72578701 2.47138473 22.4375 2.625 C23.80261719 2.75068359 23.80261719 2.75068359 25.1953125 2.87890625 C25.89398438 2.93949219 26.59265625 3.00007812 27.3125 3.0625 C27.3125 3.3925 27.3125 3.7225 27.3125 4.0625 C31.7675 5.0525 31.7675 5.0525 36.3125 6.0625 C36.3125 6.3925 36.3125 6.7225 36.3125 7.0625 C34.52159747 7.25716332 32.72973495 7.44301213 30.9375 7.625 C29.44089844 7.78162109 29.44089844 7.78162109 27.9140625 7.94140625 C25.3125 8.0625 25.3125 8.0625 23.3125 7.0625 C22.4875 7.0625 21.6625 7.0625 20.8125 7.0625 C18.3125 7.0625 18.3125 7.0625 16.3125 6.0625 C15.6525 7.0525 14.9925 8.0425 14.3125 9.0625 C14.92738281 9.02769531 15.54226563 8.99289062 16.17578125 8.95703125 C17.38814453 8.91642578 17.38814453 8.91642578 18.625 8.875 C19.82576172 8.82279297 19.82576172 8.82279297 21.05078125 8.76953125 C23.79101584 9.12448392 24.60421079 9.95616282 26.3125 12.0625 C15.4752681 16.34698703 2.69004436 12.61519938 -8.375 10.625 C-10.23608398 10.29918945 -10.23608398 10.29918945 -12.13476562 9.96679688 C-19.00472172 8.75573527 -25.85539339 7.47170245 -32.6875 6.0625 C-32.3575 4.4125 -32.0275 2.7625 -31.6875 1.0625 C-15.48312315 3.81695104 -15.48312315 3.81695104 -9.6875 7.0625 C-8.6975 6.4025 -7.7075 5.7425 -6.6875 5.0625 C-3.76953125 4.8671875 -3.76953125 4.8671875 -0.5 4.9375 C1.13001953 4.96457031 1.13001953 4.96457031 2.79296875 4.9921875 C4.04013672 5.02699219 4.04013672 5.02699219 5.3125 5.0625 C3.73984206 3.48984206 1.98409971 3.75492023 -0.1875 3.5625 C-4.57638889 3.17361111 -4.57638889 3.17361111 -5.6875 2.0625 C-7.0075 2.0625 -8.3275 2.0625 -9.6875 2.0625 C-9.6875 1.4025 -9.6875 0.7425 -9.6875 0.0625 C-6.16355489 -1.13446948 -3.61479721 -0.72295944 0 0 Z M26.3125 10.0625 C27.3025 10.3925 28.2925 10.7225 29.3125 11.0625 C28.3225 11.0625 27.3325 11.0625 26.3125 11.0625 C26.3125 10.7325 26.3125 10.4025 26.3125 10.0625 Z " fill="#888888" transform="translate(254.6875,857.9375)"/>
<path d="M0 0 C2.31 0.33 4.62 0.66 7 1 C6.5 2.875 6.5 2.875 5 5 C-0.47737536 6.88875012 -5.24105478 7.20567661 -11 7 C-10.505 7.99 -10.505 7.99 -10 9 C-11.07636719 9.35191406 -12.15273437 9.70382812 -13.26171875 10.06640625 C-31.06868575 15.61788087 -31.06868575 15.61788087 -45.109375 27.17578125 C-46.81720674 30.67384012 -46.55906045 33.14869469 -46 37 C-41.521395 46.24338284 -29.99126177 50.22610483 -21 54 C-26.90507183 55.96835728 -32.61225983 52.87474797 -38 50.375 C-43.976055 47.29986904 -49.91410627 43.17178746 -53 37 C-53.378737 33.06113519 -53.28388132 30.59244798 -51.5625 27 C-45.46502813 19.86149634 -38.41041125 15.97412105 -29.8203125 12.359375 C-27.21472909 11.10349823 -25.96809545 10.01426778 -24 8 C-21.6739143 7.61936779 -19.33944736 7.28730055 -17 7 C-14.66411677 6.04415562 -14.66411677 6.04415562 -13 5 C-13.66 4.34 -14.32 3.68 -15 3 C-14.00419922 3.03480469 -14.00419922 3.03480469 -12.98828125 3.0703125 C-6.27138984 3.23624305 -6.27138984 3.23624305 0 1 C0 0.67 0 0.34 0 0 Z " fill="#808080" transform="translate(234,799)"/>
<path d="M0 0 C9.84548053 3.97014509 19.68943331 9.00386661 24.6484375 18.921875 C24.78389059 23.7594853 24.14705703 27.16682256 21.4609375 31.234375 C15.52784729 36.90377231 9.31736752 39.35646781 1.6484375 41.921875 C2.89604094 38.17906467 4.19994675 37.65720869 7.4609375 35.546875 C12.52777141 32.08695127 15.85627513 29.59542299 17.6484375 23.546875 C17.6484375 18.99648249 16.57960472 16.28784452 13.6484375 12.921875 C2.52853108 2.65561796 -14.18522832 -0.82068946 -28.3515625 -5.078125 C-20.15850121 -9.898651 -8.12366878 -3.14578501 0 0 Z " fill="#8C8C8C" transform="translate(536.3515625,810.078125)"/>
<path d="M0 0 C-0.55602525 3.56782871 -1.68606826 4.92229114 -4.5 7.125 C-7.1880384 9.19887681 -7.1880384 9.19887681 -9 12 C-9.46101759 16.05695482 -9.12861318 19.05802376 -6.6640625 22.41796875 C-1.3814192 27.44020006 5.98406216 31.16295778 13 33 C14.485 32.505 14.485 32.505 16 32 C18.6640625 32.70703125 18.6640625 32.70703125 21.625 33.8125 C22.60726562 34.16957031 23.58953125 34.52664063 24.6015625 34.89453125 C27 36 27 36 28 38 C30.01669827 39.13350534 30.01669827 39.13350534 32 40 C24.09192897 42.53058273 17.57387447 40.15952972 10.0625 37.5 C9.09248047 37.16613281 8.12246094 36.83226562 7.12304688 36.48828125 C4.74521891 35.66834057 2.37124549 34.83874723 0 34 C0.33 33.34 0.66 32.68 1 32 C0.02160156 31.47212891 0.02160156 31.47212891 -0.9765625 30.93359375 C-6.5271235 27.79809985 -11.88340327 24.76024688 -15 19 C-15.83545106 15.85943581 -15.58762043 14.36546246 -15 11 C-12.01002722 6.23473089 -6.05160058 0 0 0 Z " fill="#888888" transform="translate(216,817)"/>
<path d="M0 0 C9.72684762 0.54701192 19.22681907 1.89305102 28.8125 3.5625 C30.19847562 3.79936757 31.58454308 4.03569847 32.97070312 4.27148438 C36.31473823 4.8424172 39.65775933 5.41867113 43 6 C43 6.33 43 6.66 43 7 C40.36 7 37.72 7 35 7 C35 7.66 35 8.32 35 9 C32.36 9 29.72 9 27 9 C27.99 9.66 28.98 10.32 30 11 C30 11.99 30 12.98 30 14 C26.125 13.125 26.125 13.125 25 12 C23.50070956 11.95386799 21.99951954 11.96203748 20.5 12 C19.00048046 12.03796252 17.49929044 12.04613201 16 12 C15.67 11.67 15.34 11.34 15 11 C12.01470558 10.3893716 9.23755776 10 6.1875 10 C5.465625 10 4.74375 10 4 10 C3.67 9.67 3.34 9.34 3 9 C2.21625 9 1.4325 9 0.625 9 C-2 9 -2 9 -5 8 C-6.66621616 7.96125079 -8.33394172 7.9549714 -10 8 C-9.360625 7.896875 -8.72125 7.79375 -8.0625 7.6875 C-7.381875 7.460625 -6.70125 7.23375 -6 7 C-5.67 6.01 -5.34 5.02 -5 4 C-3.68 4 -2.36 4 -1 4 C-0.67 2.68 -0.34 1.36 0 0 Z " fill="#7F7F7F" transform="translate(451,792)"/>
<path d="M0 0 C26.06167729 -0.32687101 51.97789568 0.59147611 78 2 C78 2.33 78 2.66 78 3 C72.94752447 4.61626656 68.3985816 5.34166823 63.0625 5.625 C62.37865234 5.66367187 61.69480469 5.70234375 60.99023438 5.7421875 C59.32720487 5.83522412 57.66364153 5.91863787 56 6 C56 5.34 56 4.68 56 4 C54.30266724 4.1071936 54.30266724 4.1071936 52.57104492 4.21655273 C40.47257208 4.93994348 28.42984882 5.12300113 16.3125 5.0625 C14.52018357 5.05746403 12.72786574 5.05290491 10.93554688 5.04882812 C6.62366197 5.03801362 2.31184746 5.02087051 -2 5 C-2.33 4.34 -2.66 3.68 -3 3 C1.62 3 6.24 3 11 3 C11 2.34 11 1.68 11 1 C7.37 1 3.74 1 0 1 C0 0.67 0 0.34 0 0 Z " fill="#6F6F6F" transform="translate(346,787)"/>
<path d="M0 0 C0 0.66 0 1.32 0 2 C-1.51857543 3.14409178 -3.09202141 4.21585038 -4.6875 5.25 C-8.97943719 8.20260927 -12.26793712 10.53763062 -15 15 C-15.74173454 19.6729276 -15.62045115 22.58771653 -13.125 26.625 C-9.62514315 30.98987829 -4.85251606 33.3853679 0 36 C1.37681965 36.78849778 2.75208896 37.57971616 4.125 38.375 C5.07375 38.91125 6.0225 39.4475 7 40 C7 40.66 7 41.32 7 42 C1.9613027 41.45653496 -2.03287702 39.7650623 -6.4375 37.375 C-7.09766113 37.02034668 -7.75782227 36.66569336 -8.43798828 36.30029297 C-13.91231908 33.25478138 -19.12580196 29.74839608 -22 24 C-22.55008321 19.49112123 -22.44871217 15.95351336 -20.5 11.8125 C-17.34905183 8.26768331 -13.91208614 5.6523944 -10 3 C-9.113125 2.38125 -8.22625 1.7625 -7.3125 1.125 C-4.67943889 -0.15594865 -2.89236016 -0.24791659 0 0 Z " fill="#8A8A8A" transform="translate(189,813)"/>
<path d="M0 0 C10.55808656 0.96355353 10.55808656 0.96355353 15 2 C15 2.66 15 3.32 15 4 C17.31 4.33 19.62 4.66 22 5 C22 4.34 22 3.68 22 3 C28.93 4.485 28.93 4.485 36 6 C36 6.33 36 6.66 36 7 C26.63879592 8.23930834 17.3903489 9.1951681 7.9375 9.1875 C6.76888428 9.1884668 6.76888428 9.1884668 5.57666016 9.18945312 C0.13569102 9.13569102 0.13569102 9.13569102 -1 8 C-3.01311449 7.60430892 -5.03597208 7.25747809 -7.0625 6.9375 C-8.71958984 6.67259766 -8.71958984 6.67259766 -10.41015625 6.40234375 C-11.26480469 6.26957031 -12.11945313 6.13679687 -13 6 C-13.33 6.66 -13.66 7.32 -14 8 C-16.3431213 7.74438677 -18.67843403 7.40729228 -21 7 C-21.33 6.34 -21.66 5.68 -22 5 C-24.11846285 4.31270746 -24.11846285 4.31270746 -26.5625 3.875 C-27.38878906 3.70742188 -28.21507812 3.53984375 -29.06640625 3.3671875 C-29.70449219 3.24601563 -30.34257812 3.12484375 -31 3 C-31 2.67 -31 2.34 -31 2 C-23.61604326 1.87484819 -16.35520932 2.36338219 -9 3 C-10.32 2.34 -11.64 1.68 -13 1 C-7.72 1.33 -2.44 1.66 3 2 C2.01 1.34 1.02 0.68 0 0 Z " fill="#7F7F7F" transform="translate(423,865)"/>
<path d="M0 0 C1.75070517 0.11470137 3.50057536 0.24219028 5.25 0.375 C6.22453125 0.44460938 7.1990625 0.51421875 8.203125 0.5859375 C10.89633189 0.98465249 12.66963279 1.63507063 15 3 C12.69 3.66 10.38 4.32 8 5 C12.98229776 6.91626837 17.72684667 7.5547115 23 8 C22.67 8.66 22.34 9.32 22 10 C19.0740394 10.88436993 16.01838674 11.22679887 13 11.6875 C12.17371094 11.82994141 11.34742188 11.97238281 10.49609375 12.11914062 C4.73305029 13.02553478 -0.23052202 12.8665849 -6 12 C-5.34 11.34 -4.68 10.68 -4 10 C-8.04387492 9.08049298 -8.04387492 9.08049298 -12.0625 9.625 C-14 10 -14 10 -16.75 8.625 C-17.86375 7.820625 -17.86375 7.820625 -19 7 C-19 6.67 -19 6.34 -19 6 C-16.69 6 -14.38 6 -12 6 C-13.98 5.34 -15.96 4.68 -18 4 C-18 3.67 -18 3.34 -18 3 C-16.9275 3.020625 -15.855 3.04125 -14.75 3.0625 C-11.74630482 3.01243841 -9.80556211 2.78906434 -7 2 C-4.66905466 1.6503582 -2.33595238 1.31445513 0 1 C0 0.67 0 0.34 0 0 Z " fill="#878787" transform="translate(463,858)"/>
<path d="M0 0 C0.495 0.99 0.495 0.99 1 2 C-1.31 2.33 -3.62 2.66 -6 3 C-6 3.33 -6 3.66 -6 4 C-10.95 3.67 -15.9 3.34 -21 3 C-21 3.66 -21 4.32 -21 5 C-23.64 5 -26.28 5 -29 5 C-29 5.33 -29 5.66 -29 6 C-31.64 6 -34.28 6 -37 6 C-37 6.33 -37 6.66 -37 7 C-39.31 7 -41.62 7 -44 7 C-41.525 7.495 -41.525 7.495 -39 8 C-39 8.99 -39 9.98 -39 11 C-41.31 11 -43.62 11 -46 11 C-46 11.33 -46 11.66 -46 12 C-47.27875 11.896875 -48.5575 11.79375 -49.875 11.6875 C-50.95394531 11.60048828 -50.95394531 11.60048828 -52.0546875 11.51171875 C-54 11 -54 11 -56 8 C-54.02 8 -52.04 8 -50 8 C-53.63 7.01 -57.26 6.02 -61 5 C-61 4.67 -61 4.34 -61 4 C-56.37792577 3.44592096 -51.75552174 2.89470328 -47.1328125 2.34594727 C-45.56566526 2.15952739 -43.9986051 1.97237376 -42.43164062 1.78442383 C-10.19392181 -2.08039221 -10.19392181 -2.08039221 0 0 Z " fill="#7F7F7F" transform="translate(318,790)"/>
<path d="M0 0 C6.57791873 0.41044485 12.74051886 0.86608597 19 3 C19 3.33 19 3.66 19 4 C-0.35169884 5.29655003 -19.59255146 6.37026245 -39 6 C-39 5.67 -39 5.34 -39 5 C-36.36 5 -33.72 5 -31 5 C-31 4.34 -31 3.68 -31 3 C-28.36 3 -25.72 3 -23 3 C-23 2.34 -23 1.68 -23 1 C-15.41 1.33 -7.82 1.66 0 2 C0 1.34 0 0.68 0 0 Z " fill="#676767" transform="translate(410,871)"/>
<path d="M0 0 C0.99773437 0.02320313 1.99546875 0.04640625 3.0234375 0.0703125 C4.52777344 0.09738281 4.52777344 0.09738281 6.0625 0.125 C6.83335937 0.14820313 7.60421875 0.17140625 8.3984375 0.1953125 C8.3984375 0.5253125 8.3984375 0.8553125 8.3984375 1.1953125 C19.9484375 1.5253125 31.4984375 1.8553125 43.3984375 2.1953125 C43.3984375 2.8553125 43.3984375 3.5153125 43.3984375 4.1953125 C37.78448809 4.99407577 32.35760643 5.34330849 26.69140625 5.328125 C25.88536453 5.32908173 25.07932281 5.33003845 24.24885559 5.33102417 C22.55384238 5.33170042 20.8588265 5.32988516 19.16381836 5.32568359 C16.603292 5.32034866 14.04294272 5.32563671 11.48242188 5.33203125 C3.07135619 5.33509863 -5.23946832 5.23040607 -13.6015625 4.1953125 C-13.6015625 3.8653125 -13.6015625 3.5353125 -13.6015625 3.1953125 C-12.97507812 3.14632812 -12.34859375 3.09734375 -11.703125 3.046875 C-10.88585937 2.97210937 -10.06859375 2.89734375 -9.2265625 2.8203125 C-8.41445313 2.75070312 -7.60234375 2.68109375 -6.765625 2.609375 C-3.70571504 2.02390486 -3.23746379 0.24305284 0 0 Z " fill="#767676" transform="translate(335.6015625,871.8046875)"/>
<path d="M0 0 C5.21464806 0.57415166 9.84511636 1.79967276 14.75 3.6875 C15.79281128 4.08461182 15.79281128 4.08461182 16.85668945 4.48974609 C26.78429686 8.36823677 37.74915849 12.73113384 42.3984375 22.91796875 C43.43106955 26.49194849 42.52868157 28.69804781 41 32 C37.61112173 36.60180413 34.24637256 39.47109196 29.1875 42.1875 C28.57092529 42.52773193 27.95435059 42.86796387 27.3190918 43.21850586 C22.96531707 45.58044724 18.76609901 47.65110405 14 49 C13.01 48.67 12.02 48.34 11 48 C12.57587891 47.36384766 12.57587891 47.36384766 14.18359375 46.71484375 C27.81608048 41.14519174 27.81608048 41.14519174 38.125 30.9375 C39.44391412 26.50971688 38.81733781 23.60421583 36.7421875 19.53125 C29.4905955 8.99530467 11.60991527 4.66628903 0 1 C0 0.67 0 0.34 0 0 Z " fill="#999999" transform="translate(504,806)"/>
<path d="M0 0 C0.78117187 0.10183594 1.56234375 0.20367188 2.3671875 0.30859375 C2.94726562 0.39238281 3.52734375 0.47617187 4.125 0.5625 C4.62 3.0375 4.62 3.0375 5.125 5.5625 C2.06244039 5.5895491 -0.9998786 5.60936298 -4.0625 5.625 C-5.35897461 5.63756836 -5.35897461 5.63756836 -6.68164062 5.65039062 C-10.18467827 5.66381223 -13.36536662 5.67204736 -16.80078125 4.93359375 C-19.17432334 4.26186383 -19.17432334 4.26186383 -21.875 6.5625 C-23.99609375 7.046875 -23.99609375 7.046875 -26.3125 7.3125 C-27.07433594 7.41046875 -27.83617187 7.5084375 -28.62109375 7.609375 C-31.21885965 7.55534867 -32.61301486 6.77562506 -34.875 5.5625 C-31.00041702 4.74800288 -27.1252625 3.93625737 -23.25 3.125 C-22.15558594 2.89490234 -21.06117188 2.66480469 -19.93359375 2.42773438 C-18.87011719 2.20537109 -17.80664062 1.98300781 -16.7109375 1.75390625 C-15.73688965 1.54967041 -14.7628418 1.34543457 -13.75927734 1.13500977 C-4.76655713 -0.64998506 -4.76655713 -0.64998506 0 0 Z " fill="#898989" transform="translate(254.875,795.4375)"/>
<path d="M0 0 C-3 2 -3 2 -6 3 C-1.05 2.67 3.9 2.34 9 2 C7.02 2.99 7.02 2.99 5 4 C12.26 3.67 19.52 3.34 27 3 C27 3.33 27 3.66 27 4 C25.35 4.33 23.7 4.66 22 5 C24.97 5.33 27.94 5.66 31 6 C31 6.33 31 6.66 31 7 C24.73 7.33 18.46 7.66 12 8 C12 7.67 12 7.34 12 7 C2.76 7 -6.48 7 -16 7 C-10.99029479 0.73786849 -7.83842483 -0.37325833 0 0 Z " fill="#858585" transform="translate(308,864)"/>
<path d="M0 0 C-0.92941406 0.43570313 -1.85882813 0.87140625 -2.81640625 1.3203125 C-15.01323043 6.78516194 -15.01323043 6.78516194 -23 17 C-23.59578601 20.44231918 -23.63052884 22.81716583 -21.9609375 25.94921875 C-16.63497276 32.90028555 -8.69989944 36.27392254 -1 40 C-4.51243376 41.17081125 -5.6053656 40.5500451 -8.8371582 39.00463867 C-9.447771 38.69373291 -10.05838379 38.38282715 -10.6875 38.0625 C-11.31164795 37.74837158 -11.9357959 37.43424316 -12.57885742 37.1105957 C-18.3845553 34.04620542 -23.99650786 30.00698429 -27 24 C-27.378737 20.06113519 -27.28388132 17.59244798 -25.5625 14 C-20.23422806 7.76202309 -8.71362067 -2.90454022 0 0 Z " fill="#999999" transform="translate(208,812)"/>
<path d="M0 0 C16.20437685 2.75445104 16.20437685 2.75445104 22 6 C22.99 5.34 23.98 4.68 25 4 C27.1875 4.375 27.1875 4.375 29 5 C29 5.99 29 6.98 29 8 C30.32 8.33 31.64 8.66 33 9 C25.45686996 10.55903802 18.96119884 9.1326314 11.5 7.5625 C10.29601562 7.31951172 9.09203125 7.07652344 7.8515625 6.82617188 C4.89858426 6.22854533 1.9484387 5.61956712 -1 5 C-0.67 3.35 -0.34 1.7 0 0 Z " fill="#6D6D6D" transform="translate(223,859)"/>
<path d="M0 0 C-0.66 0 -1.32 0 -2 0 C-2 0.99 -2 1.98 -2 3 C-5.80997355 3.9891755 -9.62337017 4.96448497 -13.4375 5.9375 C-14.50677734 6.21529297 -15.57605469 6.49308594 -16.67773438 6.77929688 C-22.80254505 8.33391243 -28.70089541 9.47673053 -35 10 C-34.01 8.35 -33.02 6.7 -32 5 C-29.36 5.33 -26.72 5.66 -24 6 C-23.67 5.01 -23.34 4.02 -23 3 C-21.07421875 2.3046875 -21.07421875 2.3046875 -18.6875 1.875 C-17.90761719 1.72804688 -17.12773437 1.58109375 -16.32421875 1.4296875 C-15.55722656 1.28789063 -14.79023438 1.14609375 -14 1 C-12.66416205 0.6768501 -11.32986274 0.34692071 -10 0 C-10 0.66 -10 1.32 -10 2 C-8.68 2 -7.36 2 -6 2 C-6 1.34 -6 0.68 -6 0 C-3 -1 -3 -1 0 0 Z " fill="#6F6F6F" transform="translate(522,857)"/>
<path d="M0 0 C9.08155014 1.36223252 16.32513354 7.34516915 21.875 14.375 C23.47744403 18.11403606 23.14154164 20.10532851 22 24 C17.48903433 31.99186832 7.50239567 37.29013022 -1 40 C-1.99 39.67 -2.98 39.34 -4 39 C-3.07058594 38.56429687 -2.14117188 38.12859375 -1.18359375 37.6796875 C10.13885669 32.50544238 10.13885669 32.50544238 18.5 23.5625 C19.19487447 20.00126835 18.94017457 17.50998505 18 14 C14.77138947 9.86334276 10.55743518 7.23440384 6.18359375 4.4296875 C4.05165194 3.03381862 2.02198863 1.54973278 0 0 Z " fill="#808080" transform="translate(521,813)"/>
<path d="M0 0 C1.6254308 0.14095064 3.25034051 0.28792087 4.875 0.4375 C5.77992188 0.51871094 6.68484375 0.59992187 7.6171875 0.68359375 C10 1 10 1 12 2 C13.89083541 2.34144069 15.78785166 2.64909668 17.6875 2.9375 C22.26492849 3.67010889 26.58646169 4.59569236 31 6 C31 6.33 31 6.66 31 7 C30.05125 7.28875 29.1025 7.5775 28.125 7.875 C24.94788422 8.76825109 24.94788422 8.76825109 23 11 C22.67 10.34 22.34 9.68 22 9 C21.01 9.495 21.01 9.495 20 10 C20 9.34 20 8.68 20 8 C17.69 8 15.38 8 13 8 C13 7.34 13 6.68 13 6 C11.68 6.33 10.36 6.66 9 7 C9 6.34 9 5.68 9 5 C7.35 5.33 5.7 5.66 4 6 C4 5.34 4 4.68 4 4 C2.35 4.33 0.7 4.66 -1 5 C-0.67 3.35 -0.34 1.7 0 0 Z " fill="#949494" transform="translate(442,806)"/>
<path d="M0 0 C1.88138672 -0.01160156 1.88138672 -0.01160156 3.80078125 -0.0234375 C10.94068953 -0.00848481 17.572283 0.47976265 24.5 2.25 C24.5 2.58 24.5 2.91 24.5 3.25 C8.33 3.25 -7.84 3.25 -24.5 3.25 C-24.5 2.92 -24.5 2.59 -24.5 2.25 C-16.31503415 0.15849825 -8.41651003 -0.05190037 0 0 Z " fill="#969696" transform="translate(363.5,860.75)"/>
<path d="M0 0 C2.31 0.33 4.62 0.66 7 1 C6.5 2.875 6.5 2.875 5 5 C-0.47737536 6.88875012 -5.24105478 7.20567661 -11 7 C-10.67 7.66 -10.34 8.32 -10 9 C-12.08047297 9.5321441 -14.16452293 10.05031786 -16.25 10.5625 C-17.41015625 10.85253906 -18.5703125 11.14257812 -19.765625 11.44140625 C-22.72090983 11.95179964 -24.24434101 12.02996165 -27 11 C-24.99786885 8.29123433 -23.98194024 7.99704477 -20.5625 7.4375 C-18.7990625 7.2209375 -18.7990625 7.2209375 -17 7 C-14.66411677 6.04415562 -14.66411677 6.04415562 -13 5 C-13.66 4.34 -14.32 3.68 -15 3 C-14.00419922 3.03480469 -14.00419922 3.03480469 -12.98828125 3.0703125 C-6.27138984 3.23624305 -6.27138984 3.23624305 0 1 C0 0.67 0 0.34 0 0 Z " fill="#8A8A8A" transform="translate(234,799)"/>
<path d="M0 0 C0 0.66 0 1.32 0 2 C-0.56589844 2.19335938 -1.13179688 2.38671875 -1.71484375 2.5859375 C-2.44832031 2.84632813 -3.18179687 3.10671875 -3.9375 3.375 C-5.03384766 3.75785156 -5.03384766 3.75785156 -6.15234375 4.1484375 C-8.18682116 4.85271413 -8.18682116 4.85271413 -9 7 C-6.36 7.66 -3.72 8.32 -1 9 C-1.66 10.32 -2.32 11.64 -3 13 C-5.08450717 12.7168444 -7.16758367 12.42314331 -9.25 12.125 C-10.99023438 11.88136719 -10.99023438 11.88136719 -12.765625 11.6328125 C-15.58193313 11.08179569 -17.55217557 10.44203518 -20 9 C-18.68 8.01 -17.36 7.02 -16 6 C-16.99 5.34 -17.98 4.68 -19 4 C-16.39688008 3.32900016 -13.79264602 2.66304662 -11.1875 2 C-10.44951172 1.80921875 -9.71152344 1.6184375 -8.95117188 1.421875 C-5.89464659 0.64737086 -3.16626522 0 0 0 Z " fill="#878787" transform="translate(490,854)"/>
<path d="M0 0 C5.14561459 0.70904138 10.26042648 1.53221991 15.375 2.4375 C16.49056274 2.63436401 16.49056274 2.63436401 17.62866211 2.83520508 C22.78704896 3.7566475 27.89952562 4.79443333 33 6 C29.25 8 29.25 8 27 8 C26.67 8.66 26.34 9.32 26 10 C23.0625 9.625 23.0625 9.625 20 9 C19.67 8.34 19.34 7.68 19 7 C16.47630543 6.20058692 14.00281094 5.5063892 11.4375 4.875 C10.72658203 4.69324219 10.01566406 4.51148438 9.28320312 4.32421875 C7.52397031 3.87555535 5.76220583 3.43684043 4 3 C4 4.32 4 5.64 4 7 C2.0625 6.6875 2.0625 6.6875 0 6 C-1 3 -1 3 0 0 Z " fill="#8D8D8D" transform="translate(219,856)"/>
<path d="M0 0 C-0.66 0 -1.32 0 -2 0 C-2 0.66 -2 1.32 -2 2 C-1.34 2.33 -0.68 2.66 0 3 C-1.32 3.33 -2.64 3.66 -4 4 C-4 3.34 -4 2.68 -4 2 C-12.19091373 6.20682303 -12.19091373 6.20682303 -18 13 C-18.63605129 16.943518 -18.87365771 19.31635194 -17.03515625 22.859375 C-12.89055816 28.28939916 -7.0349004 31.06845586 -1 34 C-4 35 -4 35 -6.7421875 33.77734375 C-18.59046778 26.81906443 -18.59046778 26.81906443 -22 20 C-22.46664268 15.8935444 -22.0876676 12.97825279 -19.60546875 9.58203125 C-15.97001761 5.99965239 -11.40857414 3.51548054 -7 1 C-6.2884375 0.58234375 -5.576875 0.1646875 -4.84375 -0.265625 C-3 -1 -3 -1 0 0 Z " fill="#808080" transform="translate(220,815)"/>
<path d="M0 0 C-0.73605469 0.37511719 -1.47210938 0.75023437 -2.23046875 1.13671875 C-9.00698787 4.69058677 -13.7219177 7.58287655 -18 14 C-18.54699709 18.10247816 -18.07977539 21.01869138 -15.61328125 24.41796875 C-12.63247508 27.34103533 -9.03209477 29.35891411 -5.4609375 31.484375 C-3 33 -3 33 -1 35 C-5.18458462 34.42281591 -8.01706351 33.01829038 -11.5625 30.75 C-12.95662109 29.87601563 -12.95662109 29.87601563 -14.37890625 28.984375 C-18.35885311 25.97124086 -20.63994425 23.34420814 -21.9375 18.5 C-22.01169963 14.34482081 -21.62863326 13.18622213 -19 10 C-6.85446276 -2.28482092 -6.85446276 -2.28482092 0 0 Z " fill="#8E8E8E" transform="translate(217,815)"/>
<path d="M0 0 C0 0.33 0 0.66 0 1 C-2.64 1 -5.28 1 -8 1 C-8 1.66 -8 2.32 -8 3 C-12.29 3 -16.58 3 -21 3 C-19.68 2.67 -18.36 2.34 -17 2 C-17 1.34 -17 0.68 -17 0 C-22.45769811 -0.11138159 -27.61509359 0.08342019 -33 1 C-32.67 -0.32 -32.34 -1.64 -32 -3 C-22.18326104 -5.96523923 -9.86165857 -1.83822241 0 0 Z " fill="#606060" transform="translate(494,798)"/>
<path d="M0 0 C1.04220703 0.46019531 1.04220703 0.46019531 2.10546875 0.9296875 C5.18661473 2.06900464 8.06892908 2.62598909 11.3125 3.125 C12.38113281 3.29257812 13.44976562 3.46015625 14.55078125 3.6328125 C15.35902344 3.75398437 16.16726563 3.87515625 17 4 C16.67 4.66 16.34 5.32 16 6 C13.0740394 6.88436993 10.01838674 7.22679887 7 7.6875 C6.17371094 7.82994141 5.34742188 7.97238281 4.49609375 8.11914062 C-1.26694971 9.02553478 -6.23052202 8.8665849 -12 8 C-11.34 7.34 -10.68 6.68 -10 6 C-10.66 5.34 -11.32 4.68 -12 4 C-10.50146484 4.12568359 -10.50146484 4.12568359 -8.97265625 4.25390625 C-7.68230469 4.35574219 -6.39195312 4.45757813 -5.0625 4.5625 C-3.77472656 4.66691406 -2.48695313 4.77132812 -1.16015625 4.87890625 C-0.11730469 4.91886719 0.92554688 4.95882812 2 5 C2.33 4.67 2.66 4.34 3 4 C1.68 3.34 0.36 2.68 -1 2 C-0.67 1.34 -0.34 0.68 0 0 Z " fill="#656565" transform="translate(469,862)"/>
<path d="M0 0 C0.87011719 0.10828125 0.87011719 0.10828125 1.7578125 0.21875 C6.20087574 0.7466387 10.51631578 1.11496626 15 1 C14.67 1.66 14.34 2.32 14 3 C16.31 3.33 18.62 3.66 21 4 C21 4.33 21 4.66 21 5 C9.12119659 6.47736379 -2.16908092 5.38360448 -14 4 C-14 3.67 -14 3.34 -14 3 C-12.20909747 2.80533668 -10.41723495 2.61948787 -8.625 2.4375 C-7.12839844 2.28087891 -7.12839844 2.28087891 -5.6015625 2.12109375 C-3 2 -3 2 -1 3 C-0.67 2.01 -0.34 1.02 0 0 Z " fill="#666666" transform="translate(291,869)"/>
<path d="M0 0 C0 0.33 0 0.66 0 1 C-5.05247553 2.61626656 -9.6014184 3.34166823 -14.9375 3.625 C-15.62134766 3.66367187 -16.30519531 3.70234375 -17.00976562 3.7421875 C-18.67279513 3.83522412 -20.33635847 3.91863787 -22 4 C-22 3.34 -22 2.68 -22 2 C-27.94 1.67 -33.88 1.34 -40 1 C-40 0.67 -40 0.34 -40 0 C-26.51340062 -1.21814446 -13.474348 -1.03082444 0 0 Z " fill="#5E5E5E" transform="translate(424,789)"/>
<path d="M0 0 C5.94616244 1.33788655 10.01691952 4.51790032 14 9 C15.87695645 12.96246361 16.3508553 14.79706753 15.125 19 C10.1688636 25.99689845 3.14936224 31.2208214 -5 34 C-5.99 33.67 -6.98 33.34 -8 33 C-7.11957031 32.55269531 -6.23914063 32.10539063 -5.33203125 31.64453125 C-4.17058594 31.03996094 -3.00914062 30.43539062 -1.8125 29.8125 C-0.66394531 29.22082031 0.48460937 28.62914062 1.66796875 28.01953125 C6.12791858 25.31637291 9.11740394 22.32389409 12 18 C12.1437564 13.68730801 12.15423354 11.30108915 9.25 8.02734375 C7.21975105 6.2695363 5.12873348 4.63589441 3 3 C1.98319689 2.01709032 0.97669929 1.02277001 0 0 Z " fill="#808080" transform="translate(514,817)"/>
<path d="M0 0 C0.33 0.66 0.66 1.32 1 2 C-1.31 2.33 -3.62 2.66 -6 3 C-6 3.33 -6 3.66 -6 4 C-10.95 3.67 -15.9 3.34 -21 3 C-21 3.66 -21 4.32 -21 5 C-22.65 4.67 -24.3 4.34 -26 4 C-25.34 3.67 -24.68 3.34 -24 3 C-24 2.34 -24 1.68 -24 1 C-24.99 0.67 -25.98 0.34 -27 0 C-8.47301006 -1.72918573 -8.47301006 -1.72918573 0 0 Z " fill="#717171" transform="translate(318,790)"/>
<path d="M0 0 C-0.89203125 0.44730469 -1.7840625 0.89460937 -2.703125 1.35546875 C-3.87359375 1.96003906 -5.0440625 2.56460938 -6.25 3.1875 C-7.99023438 4.07501953 -7.99023438 4.07501953 -9.765625 4.98046875 C-14.0369727 7.64748175 -16.43099737 10.17919159 -17.9375 15 C-18.01737388 18.83394628 -17.44428131 20.03723478 -15 23 C-12.42996366 25.14532694 -9.73797477 27.07658586 -7 29 C-5.66361566 29.99591901 -4.32939732 30.99477339 -3 32 C-7.12127115 31.43867992 -9.73501908 30.13439025 -13.125 27.75 C-13.97320312 27.16734375 -14.82140625 26.5846875 -15.6953125 25.984375 C-18.982706 23.15387348 -20.68562988 20.41466555 -21.625 16.1875 C-20.63883825 11.15807508 -17.81430972 8.30399041 -14 5 C-4.35568918 -1.45189639 -4.35568918 -1.45189639 0 0 Z " fill="#898989" transform="translate(230,816)"/>
<path d="M0 0 C0.75861328 0.02707031 1.51722656 0.05414062 2.29882812 0.08203125 C7.83602104 0.38503739 7.83602104 0.38503739 10.33203125 2.296875 C10.81736328 3.01617188 10.81736328 3.01617188 11.3125 3.75 C9.3325 3.75 7.3525 3.75 5.3125 3.75 C4.9825 4.41 4.6525 5.07 4.3125 5.75 C3.6525 5.75 2.9925 5.75 2.3125 5.75 C2.3125 5.09 2.3125 4.43 2.3125 3.75 C-3.6275 4.245 -3.6275 4.245 -9.6875 4.75 C-9.6875 4.42 -9.6875 4.09 -9.6875 3.75 C-11.9975 3.42 -14.3075 3.09 -16.6875 2.75 C-12.43451405 -1.50298595 -5.6225796 -0.32018141 0 0 Z " fill="#707070" transform="translate(438.6875,790.25)"/>
<path d="M0 0 C-0.99 0.495 -0.99 0.495 -2 1 C-2 1.66 -2 2.32 -2 3 C-10.69651012 0.42867609 -19.347852 -2.28412724 -28 -5 C-19.8812423 -9.86758097 -8.05689024 -3.04165021 0 0 Z " fill="#5D5D5D" transform="translate(536,810)"/>
<path d="M0 0 C4.62 0.99 9.24 1.98 14 3 C14 3.33 14 3.66 14 4 C3.83263014 5.36694639 -5.75951795 6.48587387 -16 5 C-16 4.67 -16 4.34 -16 4 C-12.535 3.505 -12.535 3.505 -9 3 C-9 2.34 -9 1.68 -9 1 C-6.03 1.33 -3.06 1.66 0 2 C0 1.34 0 0.68 0 0 Z " fill="#606060" transform="translate(445,868)"/>
<path d="M0 0 C0.66 0.33 1.32 0.66 2 1 C0.93458984 1.92232422 0.93458984 1.92232422 -0.15234375 2.86328125 C-1.07144531 3.67152344 -1.99054688 4.47976563 -2.9375 5.3125 C-4.31228516 6.51326172 -4.31228516 6.51326172 -5.71484375 7.73828125 C-8.5984671 10.59232898 -8.93465202 12.30731138 -9.3125 16.3125 C-8.92903157 20.83742746 -7.93611109 22.55006947 -5 26 C-2.42766733 28.1452469 0.23672352 30.10863115 3 32 C2.01 32.495 2.01 32.495 1 33 C-11.31068462 24.38557552 -11.31068462 24.38557552 -12.44140625 18.83203125 C-12.72213514 13.42573622 -11.66741298 10.12583961 -8 6 C-5.42306022 3.86074656 -2.76314807 1.89128096 0 0 Z " fill="#000000" transform="translate(179,816)"/>
<path d="M0 0 C6.57791873 0.41044485 12.74051886 0.86608597 19 3 C19 3.33 19 3.66 19 4 C15.3755729 4.19984651 11.75046556 4.38255961 8.125 4.5625 C7.11179687 4.61857422 6.09859375 4.67464844 5.0546875 4.73242188 C-1.40625714 5.04304421 -7.58648977 4.85258613 -14 4 C-14 3.67 -14 3.34 -14 3 C-9.38 2.67 -4.76 2.34 0 2 C0 1.34 0 0.68 0 0 Z " fill="#616161" transform="translate(410,871)"/>
<path d="M0 0 C5.6131052 1.36075278 8.61031425 5.62621194 12 10 C13.7620376 13.5240752 12.91269227 17.26740335 12 21 C8.98645203 25.56337264 5.59177856 28.22357575 1 31 C0.34 30.67 -0.32 30.34 -1 30 C-0.06027344 29.22076172 -0.06027344 29.22076172 0.8984375 28.42578125 C1.71570313 27.72839844 2.53296875 27.03101563 3.375 26.3125 C4.18710937 25.62800781 4.99921875 24.94351563 5.8359375 24.23828125 C8.13534134 21.86001699 9.08718956 20.1570129 10 17 C9.8690965 9.80030749 6.50296075 6.57060834 1.6875 1.625 C1.130625 1.08875 0.57375 0.5525 0 0 Z " fill="#000000" transform="translate(548,817)"/>
<path d="M0 0 C1.58294782 -0.05437607 3.16644256 -0.09296271 4.75 -0.125 C5.63171875 -0.14820313 6.5134375 -0.17140625 7.421875 -0.1953125 C10.1135858 0.00860498 11.69904974 0.63448279 14 2 C14 2.99 14 3.98 14 5 C12.02090602 5.02686553 10.04171029 5.04633375 8.0625 5.0625 C6.96035156 5.07410156 5.85820312 5.08570313 4.72265625 5.09765625 C2 5 2 5 1 4 C-1.68862664 3.60006314 -4.36352217 3.24865457 -7.0625 2.9375 C-7.82111328 2.84662109 -8.57972656 2.75574219 -9.36132812 2.66210938 C-11.2404301 2.4375626 -13.12016095 2.21829022 -15 2 C-15 1.67 -15 1.34 -15 1 C-10.05 1 -5.1 1 0 1 C0 0.67 0 0.34 0 0 Z " fill="#939393" transform="translate(421,869)"/>
<path d="M0 0 C1.5778125 0.2475 1.5778125 0.2475 3.1875 0.5 C6.81471426 1.08876033 6.81471426 1.08876033 9.75 0.875 C12 1 12 1 13.8125 2.5 C14.204375 2.995 14.59625 3.49 15 4 C8.48603827 6.57528719 1.83391689 6.42413093 -5 5 C-5.66 4.01 -6.32 3.02 -7 2 C-4.03 2.495 -4.03 2.495 -1 3 C-0.67 2.01 -0.34 1.02 0 0 Z M15 2 C15.99 2.33 16.98 2.66 18 3 C17.01 3 16.02 3 15 3 C15 2.67 15 2.34 15 2 Z " fill="#6C6C6C" transform="translate(266,866)"/>
<path d="M0 0 C1.65322266 0.01740234 1.65322266 0.01740234 3.33984375 0.03515625 C4.44457031 0.04417969 5.54929687 0.05320312 6.6875 0.0625 C7.54214844 0.07410156 8.39679688 0.08570313 9.27734375 0.09765625 C9.27734375 0.42765625 9.27734375 0.75765625 9.27734375 1.09765625 C7.29734375 1.42765625 5.31734375 1.75765625 3.27734375 2.09765625 C5.58734375 2.42765625 7.89734375 2.75765625 10.27734375 3.09765625 C10.27734375 3.42765625 10.27734375 3.75765625 10.27734375 4.09765625 C4.54678793 5.62580447 -2.07856166 5.97902111 -7.72265625 4.09765625 C-10.11756611 4.02795573 -12.51433316 4.01317622 -14.91015625 4.03515625 C-16.18246094 4.04417969 -17.45476562 4.05320312 -18.765625 4.0625 C-19.74144531 4.07410156 -20.71726562 4.08570313 -21.72265625 4.09765625 C-21.72265625 3.76765625 -21.72265625 3.43765625 -21.72265625 3.09765625 C-19.79099609 2.89849609 -19.79099609 2.89849609 -17.8203125 2.6953125 C-16.14190263 2.51715726 -14.46351852 2.33875933 -12.78515625 2.16015625 C-11.50995117 2.02963867 -11.50995117 2.02963867 -10.20898438 1.89648438 C-9.40009766 1.80947266 -8.59121094 1.72246094 -7.7578125 1.6328125 C-7.00894775 1.55426025 -6.26008301 1.47570801 -5.48852539 1.39477539 C-2.85574057 0.95179196 -3.00746177 0.10787166 0 0 Z " fill="#929292" transform="translate(420.72265625,789.90234375)"/>
<path d="M0 0 C0.33 0.33 0.66 0.66 1 1 C1.825 1 2.65 1 3.5 1 C4.325 1 5.15 1 6 1 C6.33 1.33 6.66 1.66 7 2 C8.34923638 2.18599976 9.70528869 2.32342907 11.0625 2.4375 C15.53455832 2.88183913 19.6675071 3.81841103 24 5 C20.80264675 7.13156883 20.52452514 7.24331964 17.00390625 6.75390625 C16.20871582 6.64449707 15.41352539 6.53508789 14.59423828 6.42236328 C10.02460085 5.67838881 5.47986475 4.83206453 0.9375 3.9375 C-0.02349609 3.75123047 -0.98449219 3.56496094 -1.97460938 3.37304688 C-4.31704531 2.91854438 -6.65879844 2.46081098 -9 2 C-5.78832601 0.26747651 -3.68142974 -0.2984943 0 0 Z " fill="#939393" transform="translate(458,803)"/>
<path d="M0 0 C6.85285649 1.00315183 13.75252416 5.51367704 18 11 C19.31659134 14.33536473 19.12102648 15.67053902 17.875 19.0625 C15.91080969 22.13973148 13.96972694 23.91316485 11 26 C10.34 25.67 9.68 25.34 9 25 C9.6496875 24.34644531 9.6496875 24.34644531 10.3125 23.6796875 C13.93438012 19.80951323 13.93438012 19.80951323 15.625 14.875 C14.79023502 11.03508109 13.91197702 9.70881583 11 7 C7.41623143 4.82911285 3.74418414 2.87854756 0 1 C0 0.67 0 0.34 0 0 Z " fill="#969696" transform="translate(485,817)"/>
<path d="M0 0 C5.54790947 1.90214039 8.9412578 4.24645823 12 9.3125 C13.01973727 13.07278118 13.02802347 14.83072772 11.22265625 18.29296875 C8.09403083 22.66104961 4.34536771 25.98966676 -1 27 C2.33333333 23.66666667 5.66666667 20.33333333 9 17 C9.47869377 13.58075881 9.68713529 11.0654946 7.765625 8.0859375 C6.23941794 6.31039959 4.66946289 4.64102921 3 3 C2.43925781 2.43796875 1.87851562 1.8759375 1.30078125 1.296875 C0.87152344 0.86890625 0.44226563 0.4409375 0 0 Z " fill="#898989" transform="translate(506,819)"/>
<path d="M0 0 C0.66 0.33 1.32 0.66 2 1 C1.57847656 1.48210938 1.15695313 1.96421875 0.72265625 2.4609375 C0.17480469 3.09257813 -0.37304688 3.72421875 -0.9375 4.375 C-1.48277344 5.00148438 -2.02804688 5.62796875 -2.58984375 6.2734375 C-5.46230912 9.79041726 -5.37358973 12.51692319 -5 17 C-2.35671934 22.28656133 1.17619472 24.84597347 6 28 C5.34 28.33 4.68 28.66 4 29 C-7.39126702 20.71327116 -7.39126702 20.71327116 -8.625 13.1875 C-8.47009072 7.75534775 -4.71872483 4.57603994 -1 1 C-0.67 0.67 -0.34 0.34 0 0 Z " fill="#555555" transform="translate(181,819)"/>
<path d="M0 0 C5.20083634 1.37669197 8.17031602 4.59033474 11 9 C12.21954598 13.08906594 12.3186577 15.11483971 10.875 19.125 C8.88082832 22.18272991 6.68288525 24.53464599 4 27 C3.34 26.67 2.68 26.34 2 26 C2.63228516 25.34644531 2.63228516 25.34644531 3.27734375 24.6796875 C7.95126915 19.62833455 7.95126915 19.62833455 9 13 C7.15863542 7.58296234 4.23364728 3.76324203 0 0 Z " fill="#555555" transform="translate(543,818)"/>
<path d="M0 0 C0 0.33 0 0.66 0 1 C-10.77895966 4.25110453 -20.84113421 4.3181514 -32 4 C-32 3.67 -32 3.34 -32 3 C-31.06027344 2.90912109 -31.06027344 2.90912109 -30.1015625 2.81640625 C-28.87566406 2.69072266 -28.87566406 2.69072266 -27.625 2.5625 C-26.81289063 2.48128906 -26.00078125 2.40007813 -25.1640625 2.31640625 C-22.95727195 2.10909886 -22.95727195 2.10909886 -21 1 C-14.03510657 -0.1040242 -7.0330509 -0.12033737 0 0 Z " fill="#919191" transform="translate(413,795)"/>
<path d="M0 0 C0.66 0.33 1.32 0.66 2 1 C2 1.99 2 2.98 2 4 C1.34 4 0.68 4 0 4 C0 4.66 0 5.32 0 6 C-0.99 6.33 -1.98 6.66 -3 7 C-3.33 6.34 -3.66 5.68 -4 5 C-4.99 5 -5.98 5 -7 5 C-7 5.66 -7 6.32 -7 7 C-8.32 7 -9.64 7 -11 7 C-11 6.34 -11 5.68 -11 5 C-13.31 5 -15.62 5 -18 5 C-15.18594033 3.12396022 -13.59075334 2.50907198 -10.375 1.8125 C-9.57835937 1.63332031 -8.78171875 1.45414063 -7.9609375 1.26953125 C-7.31382812 1.18058594 -6.66671875 1.09164062 -6 1 C-5.67 1.33 -5.34 1.66 -5 2 C-4.21625 1.649375 -3.4325 1.29875 -2.625 0.9375 C-1.75875 0.628125 -0.8925 0.31875 0 0 Z " fill="#818181" transform="translate(523,852)"/>
<path d="M0 0 C-3.66143823 2.34332047 -6.75223605 2 -11 2 C-11.99 2.66 -12.98 3.32 -14 4 C-16.12109375 4.484375 -16.12109375 4.484375 -18.4375 4.75 C-19.19933594 4.84796875 -19.96117187 4.9459375 -20.74609375 5.046875 C-23.34385965 4.99284867 -24.73801486 4.21312506 -27 3 C-24.00303136 2.29607491 -21.00367964 1.61165921 -18 0.9375 C-17.16082031 0.73833984 -16.32164062 0.53917969 -15.45703125 0.33398438 C-9.91898506 -0.88953746 -5.58495083 -1.02778609 0 0 Z " fill="#5B5B5B" transform="translate(247,798)"/>
<path d="M0 0 C4.84455959 2.37823834 4.84455959 2.37823834 7 4 C7.9375 6.75 7.9375 6.75 8 9 C5.31158141 11.25245881 3.35358125 12.88213958 0 14 C-0.33 13.34 -0.66 12.68 -1 12 C0.32 11.01 1.64 10.02 3 9 C2.50168276 5.31245243 1.89932357 3.39509338 -1 1 C-0.67 0.67 -0.34 0.34 0 0 Z M-3 13 C-2.34 13 -1.68 13 -1 13 C-1.33 13.66 -1.66 14.32 -2 15 C-2.33 14.34 -2.66 13.68 -3 13 Z M-5 14 C-4.01 14.495 -4.01 14.495 -3 15 C-3.99 15.495 -3.99 15.495 -5 16 C-5 15.34 -5 14.68 -5 14 Z " fill="#A5A5A5" transform="translate(421,825)"/>
<path d="M0 0 C0.8971875 0.309375 0.8971875 0.309375 1.8125 0.625 C1.8125 1.615 1.8125 2.605 1.8125 3.625 C3.1325 3.955 4.4525 4.285 5.8125 4.625 C-0.77589734 5.86809384 -6.72452807 5.56729912 -13.1875 3.625 C-13.5175 2.965 -13.8475 2.305 -14.1875 1.625 C-13.26517578 1.65980469 -13.26517578 1.65980469 -12.32421875 1.6953125 C-11.11185547 1.72238281 -11.11185547 1.72238281 -9.875 1.75 C-8.67423828 1.78480469 -8.67423828 1.78480469 -7.44921875 1.8203125 C-4.29347128 1.54779545 -3.18619687 -0.54620518 0 0 Z " fill="#656565" transform="translate(250.1875,863.375)"/>
<path d="M0 0 C10.02077369 0.34431568 19.33945967 1.0404125 29 4 C29 4.33 29 4.66 29 5 C23.22870095 5.18617094 18.20263565 4.75756927 12.57421875 3.51171875 C8.416925 2.68530679 4.22082287 2.34125802 0 2 C0 1.34 0 0.68 0 0 Z " fill="#919191" transform="translate(389,864)"/>
<path d="M0 0 C-3 2 -3 2 -5 2 C-3.16666667 5.16666667 -3.16666667 5.16666667 0 7 C-1.65 7 -3.3 7 -5 7 C-5 7.33 -5 7.66 -5 8 C-6.65 8 -8.3 8 -10 8 C-10 6.35 -10 4.7 -10 3 C-11.32 3.33 -12.64 3.66 -14 4 C-14.33 3.34 -14.66 2.68 -15 2 C-9.92523206 0.73694665 -5.27203646 -0.27036084 0 0 Z " fill="#919191" transform="translate(471,852)"/>
<path d="M0 0 C3.3 0.33 6.6 0.66 10 1 C10 1.33 10 1.66 10 2 C7.18971946 2.53659078 4.37795938 3.0544305 1.5625 3.5625 C0.3878418 3.78969727 0.3878418 3.78969727 -0.81054688 4.02148438 C-6.49499953 5.02737517 -11.28931525 4.86317657 -17 4 C-17 3.67 -17 3.34 -17 3 C-11.555 2.505 -11.555 2.505 -6 2 C-6 1.67 -6 1.34 -6 1 C-4.02 1 -2.04 1 0 1 C0 0.67 0 0.34 0 0 Z " fill="#949494" transform="translate(275,802)"/>
<path d="M0 0 C1.75570313 0.02707031 1.75570313 0.02707031 3.546875 0.0546875 C4.88492187 0.08949219 4.88492187 0.08949219 6.25 0.125 C6.25 0.785 6.25 1.445 6.25 2.125 C4.6 2.785 2.95 3.445 1.25 4.125 C1.25 4.455 1.25 4.785 1.25 5.125 C-1.06 4.795 -3.37 4.465 -5.75 4.125 C-5.75 3.465 -5.75 2.805 -5.75 2.125 C-7.4 2.125 -9.05 2.125 -10.75 2.125 C-7.15537669 -0.13498595 -4.18404325 -0.08368087 0 0 Z " fill="#7B7B7B" transform="translate(287.75,790.875)"/>
<path d="M0 0 C0 0.33 0 0.66 0 1 C-1.65 1.33 -3.3 1.66 -5 2 C-2.03 2.33 0.94 2.66 4 3 C4 3.33 4 3.66 4 4 C-5.405 4.495 -5.405 4.495 -15 5 C-15.33 4.01 -15.66 3.02 -16 2 C-12.72498478 -1.27501522 -4.4213075 -0.0775668 0 0 Z " fill="#7F7F7F" transform="translate(335,867)"/>
<path d="M0 0 C6.625 -0.25 6.625 -0.25 10 2 C9.67 2.33 9.34 2.66 9 3 C9.99 3.66 10.98 4.32 12 5 C4.91923749 5.40850553 -1.19925959 3.90420731 -8 2 C-8 1.67 -8 1.34 -8 1 C-5.36 1 -2.72 1 0 1 C0 0.67 0 0.34 0 0 Z " fill="#939393" transform="translate(450,866)"/>
<path d="M0 0 C1.04220703 0.46019531 1.04220703 0.46019531 2.10546875 0.9296875 C5.18661473 2.06900464 8.06892908 2.62598909 11.3125 3.125 C12.38113281 3.29257812 13.44976562 3.46015625 14.55078125 3.6328125 C15.35902344 3.75398437 16.16726563 3.87515625 17 4 C16.67 4.66 16.34 5.32 16 6 C13.6015625 6.484375 13.6015625 6.484375 10.625 6.75 C9.15933594 6.89695312 9.15933594 6.89695312 7.6640625 7.046875 C5 7 5 7 2 5 C2.33 4.67 2.66 4.34 3 4 C1.68 3.34 0.36 2.68 -1 2 C-0.67 1.34 -0.34 0.68 0 0 Z " fill="#707070" transform="translate(469,862)"/>
<path d="M0 0 C0 0.33 0 0.66 0 1 C-2.64 1 -5.28 1 -8 1 C-8 1.66 -8 2.32 -8 3 C-12.29 3 -16.58 3 -21 3 C-19.68 2.67 -18.36 2.34 -17 2 C-17 1.34 -17 0.68 -17 0 C-12.2418865 -2.37905675 -5.00367323 -1.33431286 0 0 Z " fill="#828282" transform="translate(494,798)"/>
<path d="M0 0 C1.134375 0.020625 2.26875 0.04125 3.4375 0.0625 C1.4575 1.0525 1.4575 1.0525 -0.5625 2.0625 C0.4275 2.7225 1.4175 3.3825 2.4375 4.0625 C-1.37766464 5.36312431 -4.83811763 4.95619853 -8.8125 4.625 C-10.07578125 4.52316406 -11.3390625 4.42132812 -12.640625 4.31640625 C-13.60484375 4.23261719 -14.5690625 4.14882813 -15.5625 4.0625 C-15.5625 3.7325 -15.5625 3.4025 -15.5625 3.0625 C-14.38880859 2.86333984 -14.38880859 2.86333984 -13.19140625 2.66015625 C-12.17949219 2.48355469 -11.16757812 2.30695312 -10.125 2.125 C-9.11566406 1.95097656 -8.10632813 1.77695312 -7.06640625 1.59765625 C-3.51307528 0.83820798 -4.0425814 0.07092248 0 0 Z " fill="#929292" transform="translate(462.5625,793.9375)"/>
<path d="M0 0 C6.8218683 -0.38614349 12.49577707 0.99134292 19 3 C19 3.33 19 3.66 19 4 C16.69 4 14.38 4 12 4 C12 4.33 12 4.66 12 5 C8.7 4.67 5.4 4.34 2 4 C2.99 3.67 3.98 3.34 5 3 C5 2.34 5 1.68 5 1 C3.35 1 1.7 1 0 1 C0 0.67 0 0.34 0 0 Z " fill="#939393" transform="translate(254,795)"/>
<path d="M0 0 C-0.639375 0.28875 -1.27875 0.5775 -1.9375 0.875 C-4.15206079 1.82823451 -4.15206079 1.82823451 -5 4 C-10.28 4 -15.56 4 -21 4 C-14.12639172 0.56319586 -7.62197381 -0.27716268 0 0 Z " fill="#919191" transform="translate(295,868)"/>
<path d="M0 0 C4.29 0.33 8.58 0.66 13 1 C13 1.33 13 1.66 13 2 C11.08654673 2.53251766 9.1690705 3.05059483 7.25 3.5625 C6.18265625 3.85253906 5.1153125 4.14257812 4.015625 4.44140625 C1.15664073 4.97098494 -0.31597383 4.98370862 -3 4 C-2.34 4 -1.68 4 -1 4 C-0.67 2.68 -0.34 1.36 0 0 Z " fill="#626262" transform="translate(451,792)"/>
<path d="M0 0 C0.99 0.33 1.98 0.66 3 1 C4.39439664 1.06665376 5.79169875 1.08538199 7.1875 1.0625 C8.445625 1.041875 9.70375 1.02125 11 1 C11 1.66 11 2.32 11 3 C9.41913952 3.36504603 7.83516093 3.71660506 6.25 4.0625 C5.36828125 4.25972656 4.4865625 4.45695313 3.578125 4.66015625 C1.01320972 4.99825872 -0.57091639 4.81158635 -3 4 C-2.01 2.68 -1.02 1.36 0 0 Z " fill="#575757" transform="translate(490,862)"/>
<path d="M0 0 C-2 2 -2 2 -5 3 C-5.66 3.66 -6.32 4.32 -7 5 C-7 4.34 -7 3.68 -7 3 C-8.98 3.33 -10.96 3.66 -13 4 C-13.33 3.01 -13.66 2.02 -14 1 C-8.83430559 -0.79217969 -5.48946087 -1.12029814 0 0 Z " fill="#5F5F5F" transform="translate(223,803)"/>
<path d="M0 0 C5.7809725 0.63065155 11.3443706 1.65155132 17 3 C17 3.33 17 3.66 17 4 C12.545 4.495 12.545 4.495 8 5 C8 4.34 8 3.68 8 3 C7.443125 3.185625 6.88625 3.37125 6.3125 3.5625 C3.600867 4.07551165 1.65628961 3.6640724 -1 3 C-0.67 2.01 -0.34 1.02 0 0 Z " fill="#5D5D5D" transform="translate(495,799)"/>
<path d="M0 0 C0 0.66 0 1.32 0 2 C-5.52967941 2.71033431 -10.49983036 3.30267176 -16 2 C-16 1.67 -16 1.34 -16 1 C-10.28728907 -1.0662997 -5.96345767 -1.0006709 0 0 Z " fill="#8C8C8C" transform="translate(477,798)"/>
<path d="M0 0 C3.375 0.3125 3.375 0.3125 7 1 C7.66 1.99 8.32 2.98 9 4 C3.47032059 4.71033431 -1.49983036 5.30267176 -7 4 C-7 3.67 -7 3.34 -7 3 C-3.535 2.505 -3.535 2.505 0 2 C0 1.34 0 0.68 0 0 Z " fill="#6E6E6E" transform="translate(436,869)"/>
<path d="M0 0 C1.63001953 0.15275391 1.63001953 0.15275391 3.29296875 0.30859375 C4.54013672 0.43427734 4.54013672 0.43427734 5.8125 0.5625 C5.8125 0.8925 5.8125 1.2225 5.8125 1.5625 C5.008125 1.68625 4.20375 1.81 3.375 1.9375 C2.1065625 2.246875 2.1065625 2.246875 0.8125 2.5625 C0.4825 3.2225 0.1525 3.8825 -0.1875 4.5625 C-3.1575 4.0675 -3.1575 4.0675 -6.1875 3.5625 C-6.1875 2.9025 -6.1875 2.2425 -6.1875 1.5625 C-7.1775 1.2325 -8.1675 0.9025 -9.1875 0.5625 C-5.76060364 -0.57979879 -3.57647782 -0.34611076 0 0 Z " fill="#8F8F8F" transform="translate(258.1875,863.4375)"/>
<path d="M0 0 C0.33 1.32 0.66 2.64 1 4 C-1.64 3.67 -4.28 3.34 -7 3 C-7 2.34 -7 1.68 -7 1 C-9.64 1 -12.28 1 -15 1 C-15 0.67 -15 0.34 -15 0 C-9.77254141 -1.2063366 -5.23471686 -0.75612577 0 0 Z " fill="#636363" transform="translate(259,796)"/>
<path d="M0 0 C0 0.99 0 1.98 0 3 C-2.50812014 5.50812014 -4.62934407 6.87644802 -8 8 C-7.34 6.02 -6.68 4.04 -6 2 C-6.66 1.67 -7.32 1.34 -8 1 C-5.07175348 0.02391783 -3.04386724 -0.08226668 0 0 Z " fill="#6C6C6C" transform="translate(210,805)"/>
<path d="M0 0 C2 0.66666667 4 1.33333333 6 2 C6 2.66 6 3.32 6 4 C2.37 4.33 -1.26 4.66 -5 5 C-5.66 4.01 -6.32 3.02 -7 2 C-4.03 2.495 -4.03 2.495 -1 3 C-0.67 2.01 -0.34 1.02 0 0 Z " fill="#646464" transform="translate(266,866)"/>
<path d="M0 0 C0.33 0.66 0.66 1.32 1 2 C-12.6332574 5.44419134 -12.6332574 5.44419134 -19 5 C-12.84243932 1.6843904 -6.88341167 0.58126587 0 0 Z " fill="#919191" transform="translate(307,862)"/>
<path d="M0 0 C1.97986082 0.11347619 3.95891598 0.2410935 5.9375 0.375 C7.03964844 0.44460938 8.14179688 0.51421875 9.27734375 0.5859375 C10.62505859 0.79089844 10.62505859 0.79089844 12 1 C12.33 1.66 12.66 2.32 13 3 C10.69 3 8.38 3 6 3 C6 3.66 6 4.32 6 5 C4.35 4.67 2.7 4.34 1 4 C1.66 3.67 2.32 3.34 3 3 C3 2.34 3 1.68 3 1 C2.01 0.67 1.02 0.34 0 0 Z " fill="#606060" transform="translate(291,790)"/>
<path d="M0 0 C2.6875 -0.3125 2.6875 -0.3125 5 0 C4.67 0.66 4.34 1.32 4 2 C6.31 2.33 8.62 2.66 11 3 C11 3.33 11 3.66 11 4 C6.38 4.33 1.76 4.66 -3 5 C-2.01 3.35 -1.02 1.7 0 0 Z " fill="#595959" transform="translate(301,870)"/>
<path d="M0 0 C1.875 1.5 1.875 1.5 3 3 C1.02 3 -0.96 3 -3 3 C-3.33 3.66 -3.66 4.32 -4 5 C-4.66 5 -5.32 5 -6 5 C-6.33 4.34 -6.66 3.68 -7 3 C-9.01669827 1.86649466 -9.01669827 1.86649466 -11 1 C-7.26354175 0.12083335 -3.83702911 -0.33365471 0 0 Z " fill="#595959" transform="translate(447,791)"/>
<path d="M0 0 C0 0.66 0 1.32 0 2 C0.66 2.33 1.32 2.66 2 3 C0.71349294 3.69710731 -0.57940665 4.38242876 -1.875 5.0625 C-2.95394531 5.63677734 -2.95394531 5.63677734 -4.0546875 6.22265625 C-4.69664062 6.47917969 -5.33859375 6.73570312 -6 7 C-6.66 6.67 -7.32 6.34 -8 6 C-7.01 5.67 -6.02 5.34 -5 5 C-5 4.34 -5 3.68 -5 3 C-5.66 2.67 -6.32 2.34 -7 2 C-4.35261084 0.5393715 -3.10551666 0 0 0 Z " fill="#575757" transform="translate(194,810)"/>
<path d="M0 0 C3.96 0.33 7.92 0.66 12 1 C11.01 1.66 10.02 2.32 9 3 C9.99 3.66 10.98 4.32 12 5 C10.37419034 4.88601335 8.74932843 4.75844341 7.125 4.625 C6.22007812 4.55539062 5.31515625 4.48578125 4.3828125 4.4140625 C2 4 2 4 0 2 C0 1.34 0 0.68 0 0 Z " fill="#7F7F7F" transform="translate(297,794)"/>
<path d="M0 0 C2.64 0.33 5.28 0.66 8 1 C8.12375 1.639375 8.2475 2.27875 8.375 2.9375 C8.58125 3.618125 8.7875 4.29875 9 5 C9.66 5.33 10.32 5.66 11 6 C9.5608866 5.71640113 8.12374482 5.42278601 6.6875 5.125 C5.88699219 4.96257813 5.08648437 4.80015625 4.26171875 4.6328125 C2 4 2 4 -1 2 C-0.67 1.34 -0.34 0.68 0 0 Z " fill="#5B5B5B" transform="translate(196,853)"/>
<path d="M0 0 C3.3 0.33 6.6 0.66 10 1 C9.67 2.32 9.34 3.64 9 5 C6.36 4.67 3.72 4.34 1 4 C1.66 3.67 2.32 3.34 3 3 C3 2.34 3 1.68 3 1 C2.01 0.67 1.02 0.34 0 0 Z " fill="#616161" transform="translate(272,792)"/>
<path d="M0 0 C-0.66 0 -1.32 0 -2 0 C-2 0.99 -2 1.98 -2 3 C-5.3 3.66 -8.6 4.32 -12 5 C-11.34 4.01 -10.68 3.02 -10 2 C-8.68 2 -7.36 2 -6 2 C-6 1.34 -6 0.68 -6 0 C-3 -1 -3 -1 0 0 Z " fill="#565656" transform="translate(522,857)"/>
<path d="M0 0 C0.66 0 1.32 0 2 0 C1.67 0.66 1.34 1.32 1 2 C0.67 1.34 0.34 0.68 0 0 Z M-6 1 C-3.69 1.33 -1.38 1.66 1 2 C1 2.66 1 3.32 1 4 C-2.9813783 5.3271261 -6.85045227 5.06915913 -11 5 C-11 4.67 -11 4.34 -11 4 C-9.35 3.67 -7.7 3.34 -6 3 C-6 2.34 -6 1.68 -6 1 Z " fill="#9A9A9A" transform="translate(449,792)"/>
<path d="M0 0 C2.375 -0.1875 2.375 -0.1875 5 0 C5.66 0.99 6.32 1.98 7 3 C2.545 3.495 2.545 3.495 -2 4 C-1.34 2.68 -0.68 1.36 0 0 Z M7 1 C8.65 1 10.3 1 12 1 C10.02 1.99 10.02 1.99 8 3 C7.67 2.34 7.34 1.68 7 1 Z " fill="#7E7E7E" transform="translate(271,863)"/>
<path d="M0 0 C-3.3146667 2.02907167 -5.4315979 2.12742133 -9.25 1.625 C-10.14203125 1.51414062 -11.0340625 1.40328125 -11.953125 1.2890625 C-12.62859375 1.19367187 -13.3040625 1.09828125 -14 1 C-14 0.67 -14 0.34 -14 0 C-9.20699867 -1.39151652 -4.84864218 -0.68662689 0 0 Z " fill="#909090" transform="translate(487,801)"/>
<path d="M0 0 C0.66 0 1.32 0 2 0 C1.42655063 2.86724686 1.1385485 3.8614515 -1 6 C-2.32 6 -3.64 6 -5 6 C-5.33 5.01 -5.66 4.02 -6 3 C-3.525 3.495 -3.525 3.495 -1 4 C-0.67 2.68 -0.34 1.36 0 0 Z " fill="#787878" transform="translate(510,857)"/>
<path d="M0 0 C2.64 0.33 5.28 0.66 8 1 C7.67 1.99 7.34 2.98 7 4 C7.66 4.33 8.32 4.66 9 5 C5.7 4.34 2.4 3.68 -1 3 C-0.67 2.01 -0.34 1.02 0 0 Z " fill="#5B5B5B" transform="translate(208,857)"/>
<path d="M0 0 C2.31 0.33 4.62 0.66 7 1 C6.34 2.32 5.68 3.64 5 5 C2.03 4.505 2.03 4.505 -1 4 C-0.67 2.68 -0.34 1.36 0 0 Z " fill="#828282" transform="translate(234,799)"/>
<path d="M0 0 C-0.33 0.99 -0.66 1.98 -1 3 C-4.63 2.67 -8.26 2.34 -12 2 C-12 1.67 -12 1.34 -12 1 C-7.95858806 0.36605303 -4.0934693 -0.12404452 0 0 Z " fill="#535353" transform="translate(269,793)"/>
<path d="M0 0 C2.97 0.33 5.94 0.66 9 1 C9 1.33 9 1.66 9 2 C6.36 2 3.72 2 1 2 C1 2.66 1 3.32 1 4 C0.01 4 -0.98 4 -2 4 C-1.34 2.68 -0.68 1.36 0 0 Z " fill="#555555" transform="translate(485,797)"/>
<path d="M0 0 C2.97 0.33 5.94 0.66 9 1 C9 1.99 9 2.98 9 4 C5.625 3.6875 5.625 3.6875 2 3 C1.34 2.01 0.68 1.02 0 0 Z " fill="#7F7F7F" transform="translate(444,864)"/>
<path d="M0 0 C0.66 0.99 1.32 1.98 2 3 C-0.97 3.66 -3.94 4.32 -7 5 C-6.34 4.67 -5.68 4.34 -5 4 C-5 3.34 -5 2.68 -5 2 C-3.35 1.34 -1.7 0.68 0 0 Z " fill="#505050" transform="translate(528,854)"/>
<path d="M0 0 C2.97 0.33 5.94 0.66 9 1 C8.01 2.485 8.01 2.485 7 4 C5.68 3.67 4.36 3.34 3 3 C3.33 2.34 3.66 1.68 4 1 C2.68 0.67 1.36 0.34 0 0 Z " fill="#909090" transform="translate(464,864)"/>
<path d="M0 0 C0.99 0 1.98 0 3 0 C3 1.65 3 3.3 3 5 C3.66 5.33 4.32 5.66 5 6 C2.83125748 5.49396008 1.00032373 5.00016187 -1 4 C-0.67 2.68 -0.34 1.36 0 0 Z " fill="#707070" transform="translate(216,857)"/>
<path d="M0 0 C0.928125 0.20625 1.85625 0.4125 2.8125 0.625 C1.8225 1.12 1.8225 1.12 0.8125 1.625 C0.8125 2.285 0.8125 2.945 0.8125 3.625 C-1.4975 2.965 -3.8075 2.305 -6.1875 1.625 C-3.1875 -0.375 -3.1875 -0.375 0 0 Z " fill="#838383" transform="translate(499.1875,810.375)"/>
<path d="M0 0 C0 0.66 0 1.32 0 2 C-2.97 2.66 -5.94 3.32 -9 4 C-5 0 -5 0 0 0 Z " fill="#848484" transform="translate(216,806)"/>
<path d="M0 0 C2.64 0.33 5.28 0.66 8 1 C4.86501708 2.85776765 2.62528568 3.20140476 -1 3 C-0.67 2.01 -0.34 1.02 0 0 Z " fill="#525252" transform="translate(495,799)"/>
<path d="M0 0 C-3.13498292 1.85776765 -5.37471432 2.20140476 -9 2 C-9.33 1.34 -9.66 0.68 -10 0 C-6.7169902 -1.6415049 -3.57454967 -0.51888624 0 0 Z " fill="#656565" transform="translate(247,798)"/>
<path d="M0 0 C0 0.66 0 1.32 0 2 C-1.96147874 3.38938077 -3.96166576 4.7260411 -6 6 C-6.66 5.67 -7.32 5.34 -8 5 C-3.16129032 0 -3.16129032 0 0 0 Z " fill="#969696" transform="translate(189,813)"/>
<path d="M0 0 C0 0.99 0 1.98 0 3 C-3.3 3 -6.6 3 -10 3 C-6.26223701 0.50815801 -4.5227786 0 0 0 Z " fill="#848484" transform="translate(476,804)"/>
</svg>
